<?xml version="1.0" encoding="UTF-8"?><svg id="Layer_2" xmlns="http://www.w3.org/2000/svg" viewBox="0 0 622.2 478.13"><defs><style>.cls-1{fill:#ffa300;}</style></defs><g id="Footer"><g><path class="cls-1" d="M13.22,333.26c2.89-2.52,5.73-3.33,9.22-1.63,.86,.42,1.78,.75,2.71,.99,4.49,1.16,9.56-.54,11.53-3.84,2.29-3.83,1.69-7.96-2.03-11.73-1.67-1.69-3.52-3.44-5.64-4.41-6.72-3.09-15.77-11.8-21.17-6-6.94,7.45-13.85,30.16,.91,29.25,2.6-.16,2.55-.95,4.47-2.63Z"/><path class="cls-1" d="M32.51,372.05c-2.87-.16-6.54-2.07-8.62-.09-3.52,3.34-4.23,11.27-.65,14.54,1.58,1.44,4.38-.23,6.34-.95,3.83-1.41,6.38-4.22,7.05-8.38,.55-3.39-.67-4.93-4.13-5.12Z"/><path class="cls-1" d="M306.42,269.29c5.59,3.75,9.31,.83,12.76-2.37,3.57-3.3,7.2-4.59,11.79-2.08,2.63,1.44,5.58,2.23,7.91-.58,.64-.78,1.01-2.42,.64-3.3-1.39-3.33-4.62-3.32-7.45-3.03-2.95,.3-5.1,.49-7.71-1.98-4.48-4.25-10.69-2.73-14.18,2.51-.99,1.49-2.18,2.86-3.08,4.02-2.77-1.1-4.75-2.56-6.72-2.54-4.02,.05-7.08-1.62-9.66-4.24-3.74-3.81-7.72-3.32-11.95-1.26-2.6,1.26-5.04,3.02-7.77,3.8-12.45,3.57-19.51,12.73-24.97,23.58-1.53,3.05-1.53,6.24,1.49,8.52,3.13,2.36,5.62,.36,7.47-1.95,2.86-3.59,6.12-3.44,9.69-1.64,1.93,.97,3.62,2.42,5.57,3.34,4.74,2.25,8.19,7.1,14,7.14,4.49,.02,8.53,.96,11.5,5.17,4.02-3.56,7.33-6.3,10.41-9.28,2.79-2.71,4.56-5.76,5.14-9.99,.76-5.52-.41-9.81-4.87-13.83Z"/><path class="cls-1" d="M63.25,376.34c4.36,3.59,9.3,1.03,13.89,.4,3.29-.45,6.68-1.56,9.55-3.2,2.82-1.62,5.49-3.96,7.43-6.57,2.5-3.37,1.56-10.47-1.42-12.7-4.78-3.57-9.77-6.86-14.75-10.16-2.98-1.98-6.27-2.4-9.68-1.14-5.61,2.08-11.39,10.16-11.67,16.28-.26,5.84,2.56,13.72,6.66,17.09Z"/><path class="cls-1" d="M107.68,347.73c-3.11,3.61-5.58,7.83-7.98,11.99-1.81,3.13-.72,5.21,2.94,6.63,2.01,.78,4.61,.97,5.94,2.38,3.9,4.13,7.98,2.48,11.99,.94,2.88-1.11,5.3-2.96,8.84-1.96,2.73,.76,4.77-1.18,4.77-4.04,0-5.24-.4-10.48-.66-16.08-6.69-1.03-12.82-2.33-19.01-2.75-2.25-.15-5.35,1.17-6.83,2.88Z"/><path class="cls-1" d="M118.02,295.12c-6.68,5.12-7.13,12.78-8.06,20.12-.16,1.27,1.85,3.25,3.31,4.2,7.35,4.76,17.6,2.91,23.48-4.1,2-2.38,3.79-4.94,6.17-8.07-4.28-4.2-8.09-8.16-12.14-11.87-4.53-4.16-7.84-4.06-12.78-.27Z"/><path class="cls-1" d="M235.3,362.13c-1.02,1.07-1.93,2.18-2.98,3.12-10.6,9.54-10.02,16.46,2.08,24.17,5.5,3.5,10.39,2.71,14.4-2.32,5.47-6.86,2.77-18.23-5.31-21.96-2.59-1.2-5.37-1.99-8.19-3.01Z"/><path class="cls-1" d="M118.99,442.59c-.04-5.72-3.08-8.4-10.15-9.48-3.43,.9-7.2,1.18-10.21,2.84-6.74,3.72-6.85,11.89-.19,15.69,2.98,1.7,6.78,2.56,10.25,2.69,5.46,.2,10.34-5.81,10.3-11.74Z"/><path class="cls-1" d="M190.66,452.99c-.55,.03-1.29,.03-2,.13-9.02,1.29-15.4,14.46-10.84,22.35,1.62,2.8,4.38,3.52,7.45,1.55,5.98-3.84,9.62-9.45,11.25-16.28,.88-3.69-2.06-7.43-5.86-7.75Z"/><path class="cls-1" d="M479.22,267.49c-3.16-4.38-6.85-5.73-11.22-4.02-3.11,1.22-6.18,2.56-9.75,4.04,2.38,9.12,3.97,11.79,8.24,14.05,3.76,2,8.72,.87,11.78-2.68,2.88-3.35,3.28-8.15,.95-11.39Z"/><path class="cls-1" d="M487.65,13.3c-.47,4.7,2.23,7.3,6.75,7.43,5.33,.15,11.18-4.55,11.31-9.09,.17-5.96-4.57-11.8-9.5-11.64-5.85,.19-7.9,6.64-8.57,13.29Z"/><path class="cls-1" d="M528.56,355.84c-.12,3.69,4.32,7.62,8.93,7.91,4.96,.31,8.44-3.48,8.71-9.48,.23-5.02-2.72-10.11-5.99-10.36-5.12-.38-11.45,6.1-11.65,11.92Z"/><path class="cls-1" d="M489.28,455.27c2.29,1.71,4.8,3.3,7.45,4.31,4.06,1.54,7.56-.33,10.53-3.01,2.32-2.09,3.6-5.18,1.7-7.75-1.68-2.28-4.66-3.6-7.27-5.49-4.58,1.91-8.71,3.22-12.41,5.32-2.68,1.52-2.55,4.73-.01,6.62Z"/><path class="cls-1" d="M208.73,313.34c-4.21-.83-8.54-1.04-14.47-1.66-.48,.2-2.85,.59-4.25,1.97-1.35,1.32-2.62,3.92-2.19,5.48,.37,1.35,3.09,2.27,4.93,2.96,2.36,.88,4.98,1.1,7.3,2.05,4.38,1.79,11.95-2.71,11.55-7.31-.11-1.28-1.69-3.25-2.87-3.48Z"/><path class="cls-1" d="M101.58,414.23c.41-4.77-2.43-8.56-6.54-8.75-4.65-.21-9.99,3.56-10.37,7.33-.41,4.15,4.06,9.34,8.2,9.53,4.13,.19,8.33-3.72,8.71-8.11Z"/><path class="cls-1" d="M606.84,357.19c-1.65,4.08-.49,7.44,3.13,9.02,3.98,1.75,6.93,.8,9.01-3.12,1.01-1.9,1.76-3.95,2.46-5.99,1.79-5.17,.48-6.98-5.07-7.19-4.53-.17-7.41,2.03-9.54,7.26Z"/><path class="cls-1" d="M140.99,395.5c-.32,3.63,3.96,9.44,7.22,9.82,3.86,.45,8.31-3.78,8.62-8.19,.25-3.53-3.72-7.77-7.72-8.26-3.82-.46-7.79,2.78-8.12,6.63Z"/><path class="cls-1" d="M402.72,341.51c-.24,3.5,1.07,6.22,4.33,7.64,2.65,1.16,6.01-.67,8.38-4.26,2.4-3.64,2.5-6.7,.09-9.3-2.11-2.28-4.76-3.67-7.8-2.29-3.38,1.53-4.92,4.5-5,8.2Z"/><path class="cls-1" d="M264.46,463.46c.07,3.75,1.97,5.54,5.97,5.6,5.03,.08,9.69-3.63,9.73-7.76,.03-3.59-3.62-6.94-7.75-7.12-4.44-.18-8.05,4.03-7.95,9.28Z"/><path class="cls-1" d="M359.61,261.19c1.81,2.63,2.7,3.77,3.43,5,2.94,5.04,7.21,5.46,10.37,.68,1.27-1.92,2.09-4.47,2.15-6.76,.05-1.9-.8-4.76-2.18-5.52-1.46-.81-4.28-.14-6.02,.79-2.71,1.46-5.01,3.69-7.75,5.81Z"/><path class="cls-1" d="M433.2,65.45c-.67,4.31,2.63,8.22,7.5,8.91,3.8,.54,6.8-1.63,7.25-5.23,.47-3.68-3.49-9.16-7.07-9.79-3.24-.57-7.13,2.53-7.68,6.11Z"/><path class="cls-1" d="M423.07,122.65c-.25,3.4,2.56,6.94,5.76,7.25,3.7,.36,7.31-3.04,7.64-7.2,.34-4.24-2.16-7.94-5.49-8.12-3.72-.2-7.59,3.74-7.91,8.07Z"/><path class="cls-1" d="M430.31,184.32c.62,5.69,4.95,7,10.8,8.95,.71-4.11,1.76-7.34,1.7-10.54-.07-3.91-3.87-6.46-7.58-5.83-3.71,.63-5.38,3.23-4.93,7.42Z"/><path class="cls-1" d="M583.4,272.14c-.39,3.18,2.66,5.98,7.15,6.56,3.89,.5,7.31-2.11,7.61-5.82,.27-3.3-3.49-7.58-6.98-7.95-2.99-.32-7.36,3.72-7.79,7.21Z"/><path class="cls-1" d="M356.38,421.05c-4.1-1.22-7,.3-7.85,3.83-.89,3.7,1.39,7.23,5.21,8.09,5.14,1.14,8.4-1.76,9.69-9.15-2.26-.9-4.6-2.04-7.05-2.76Z"/><path class="cls-1" d="M156.01,357.82c-.01,2.81,2.87,5.38,6.36,5.67,4.06,.34,7.43-2.22,7.69-5.83,.22-2.93-2.57-5.98-5.73-6.28-3.61-.34-8.3,3.29-8.32,6.44Z"/><path class="cls-1" d="M377.45,422.54c-.36,4.5,2.15,7.77,6.19,8.07,4.22,.31,6.75-1.26,7.04-4.39,.35-3.73-3.61-8.47-7.18-8.62-3.2-.13-5.81,2-6.05,4.93Z"/><path class="cls-1" d="M467.98,432.73c-.41,3.84,1.85,6.91,5.32,7.24,3.34,.32,6.45-2.37,6.92-5.98,.49-3.78-2.52-7.52-6.58-8.19-2.93-.48-5.16,2.26-5.65,6.93Z"/><path class="cls-1" d="M138.44,435.49c-3.12-.08-5.75,2.25-5.85,5.18-.11,3.27,2.96,7.24,5.71,7.38,3.05,.16,5.79-2.79,5.76-6.18-.04-3.51-2.5-6.3-5.62-6.38Z"/><path class="cls-1" d="M227.88,230.05c.1-3.88-1.61-5.38-4.15-5.05-3.46,.45-6.56,3.79-7.05,8.16-.16,1.46,.35,3.91,1.28,4.35,1.44,.68,4.28,.73,5.16-.22,2.21-2.37,3.64-5.46,4.75-7.24Z"/><path class="cls-1" d="M191.1,204.07c1.64,1.56,3.48,2.27,5.03,.73,1.16-1.15,2.14-3.32,1.91-4.83-.35-2.22-1.85-4.26-3.06-6.79-8.11,3.26-8.87,6.16-3.87,10.89Z"/><path class="cls-1" d="M177.85,337.35c2.57,1.51,4.76,.65,6.15-1.66,1.93-3.22,2.62-6.6-1.05-10.82-2.38,2.19-4.49,3.74-6.09,5.71-2.04,2.51-1.48,5.32,1,6.77Z"/><path class="cls-1" d="M409.01,253.51c4.2,3.11,7.28,.35,10.27-1.73,1.9-1.32,3.02-3.77,1.03-5.44-1.25-1.05-4.21-1.37-5.66-.6-2.84,1.5-5.31,3.89-5.65,7.78Z"/><path class="cls-1" d="M88.05,294.85c-.29-1.68-1.97-3.11-2.63-4.06-4.13,.06-6.72,2.31-6.59,4.8,.14,2.53,1.66,3.93,4.14,4.12,2.59,.21,5.53-2.31,5.08-4.86Z"/><path class="cls-1" d="M82.33,333.19c-.15-1.25-1.56-3.1-2.68-3.35-2.78-.61-6.64,3.33-6.55,7.37,.8,.53,2.11,2.07,3.57,2.22,2.6,.27,5.99-3.49,5.67-6.25Z"/><path class="cls-1" d="M79.25,443.58c-5.55-.76-8.42,.76-9.46,4.7-.3,1.12,.09,3.15,.87,3.65,.87,.55,3.16,.3,3.75-.45,1.82-2.29,3.12-5,4.83-7.9Z"/><path class="cls-1" d="M93.17,466.39c-1.78,1.47-3.68,2.82-5.32,4.44-1.53,1.52-2.07,3.73,.17,4.7,1.25,.54,4.08-.15,4.75-1.21,1.27-2.02,1.5-4.7,2.16-7.1-.59-.28-1.17-.55-1.76-.83Z"/><path class="cls-1" d="M368.35,237.64c-.59,2.29,1.47,3.45,3.7,2.85,2.24-.6,2.98-2.55,2.09-4.53-1.04-2.33-2.6-4.42-4.25-7.15-4.89,2.91-.83,6.08-1.54,8.84Z"/><path class="cls-1" d="M514.23,241.39c1.75-.68,3.37-2.13,4.49-3.67,.28-.38-1.9-3.45-2.38-3.31-1.94,.56-3.66,1.89-6.64,3.62,2.34,1.8,3.84,3.63,4.53,3.36Z"/><path class="cls-1" d="M72.52,470.66c-.07-.51-1.58-1.35-2.16-1.18-3.05,.93-4.76,2.91-3.94,6.34,.05,.21,.29,.36,1.23,1.45,3.1-1.27,5.38-2.89,4.87-6.62Z"/><path class="cls-1" d="M288.43,172.6c-.88-.17-2.08,1.36-3.14,2.14,.98,1.13,1.77,2.73,3,3.23,.77,.31,2.21-1.04,4.28-2.14-1.83-1.51-2.87-2.98-4.14-3.22Z"/><path class="cls-1" d="M61.78,215.95c1.35-.2,2.54-1.43,4.4-2.62-1.54-1.22-2.59-2.59-3.16-2.41-1.35,.42-2.48,1.58-3.69,2.44,.83,.92,1.78,2.69,2.45,2.59Z"/><path class="cls-1" d="M319.23,368.46c.25,.9,1.44,1.54,2.22,2.29,.72-.76,2.17-1.74,2.02-2.23-.35-1.11-1.48-1.98-2.86-3.64-.73,1.74-1.6,2.81-1.38,3.59Z"/><path class="cls-1" d="M342.87,252.96c-.14,.22,1.35,1.91,1.49,1.83,1.11-.6,2.21-1.37,3-2.34,.2-.25-.72-1.41-1.44-2.74-1.33,1.35-2.36,2.19-3.05,3.26Z"/><path class="cls-1" d="M182.79,402.4c2.11,1.51,4.94,4.72,6.19,4.19,2.75-1.17,5.7-3.86,6.68-6.61,.86-2.41-.86-5.73-1.44-8.65-1.9,1.1-3.8,2.2-5.69,3.3-1.91,2.59-3.82,5.18-5.73,7.77Z"/><path class="cls-1" d="M428.05,429.58c-.99,.08-1.93,.84-2.89,1.31,.52,.88,.92,2.37,1.58,2.5,.82,.16,1.86-.81,3.31-1.54-.93-1.1-1.52-2.31-2.01-2.27Z"/><path class="cls-1" d="M137.89,272.91c.17-.29-.76-1.24-1.52-2.39-1.07,1.27-1.93,1.98-2.29,2.9-.12,.31,1.33,1.7,1.5,1.6,.9-.5,1.78-1.23,2.3-2.1Z"/><path class="cls-1" d="M476.95,326.69c.76,0,1.86-.73,2.14-1.41,.23-.55-.54-1.52-.87-2.3-.96,.41-1.92,.82-3.54,1.51,1.1,1.13,1.69,2.2,2.27,2.2Z"/><path class="cls-1" d="M401.64,241.26c-.1,.15,.82,1.42,1.11,1.37,.77-.15,1.45-.74,2.5-1.35-.85-.83-1.52-1.73-1.73-1.64-.74,.34-1.42,.96-1.89,1.63Z"/><path class="cls-1" d="M370.65,154.77c.12-1.22,.23-2.43,.35-3.65-.49-.05-.99-.09-1.48-.13-.05,1.23-.11,2.45-.16,3.67,.43,.04,.87,.07,1.3,.11Z"/><path class="cls-1" d="M497.02,129.58c1.51,.02,2.35,.28,2.68-.02,.39-.36,.33-1.21,.47-1.84-.75-.12-1.59-.5-2.2-.26-.44,.17-.55,1.16-.95,2.12Z"/><path class="cls-1" d="M380.46,313.82c.58,.26,1.14,.71,1.73,.74,.61,.03,1.25-.35,3.09-.94-2.48-.81-3.14-1.26-3.66-1.13-.47,.12-.78,.86-1.16,1.33Z"/><path class="cls-1" d="M490.49,168.63c.18,.36,1.48,.62,1.6,.45,.42-.61,.56-1.43,.96-2.63-1.23,.15-2.09,0-2.36,.34-.34,.42-.45,1.36-.2,1.84Z"/><path class="cls-1" d="M265.57,184.59c.1-.41-.59-1.02-1.09-1.77-.68,.74-1.43,1.19-1.48,1.72-.04,.42,.79,1.32,1.18,1.29,.52-.04,1.27-.71,1.39-1.23Z"/><path class="cls-1" d="M227.66,107.1c-.38,.19-.95,.3-1.1,.6-.13,.26,.22,.75,.36,1.14,.51-.27,1.01-.55,1.52-.82-.26-.31-.52-.61-.78-.92Z"/><path class="cls-1" d="M286.05,368.85c1.75-.48,3.58-.8,5.17-1.6,.28-.14-.49-2.33-.96-4.42-1.83,.82-3.68,1.32-4.99,2.44-.44,.38,.49,2.35,.79,3.59Z"/><path class="cls-1" d="M350.31,244.31c.46-.38,.95-.73,1.34-1.17,.05-.06-.47-.6-.87-1.1-.43,.47-.9,.86-1.17,1.37-.07,.14,.46,.6,.71,.91Z"/><path class="cls-1" d="M298.52,210.77c.39-.42,.64-.99,.94-1.5-.37-.17-.74-.35-1.33-.62-.23,.56-.51,1.09-.63,1.66-.02,.09,.93,.55,1.02,.46Z"/></g></g></svg>