<?xml version="1.0" encoding="UTF-8"?><svg id="Layer_2" xmlns="http://www.w3.org/2000/svg" viewBox="0 0 438.69 586.01"><g id="Footer"><g><path d="M165.2,574.73c-1.48-3.53-1.37-6.49,1.35-9.26,.67-.68,1.27-1.46,1.79-2.26,2.51-3.9,2.48-9.25-.03-12.15-2.92-3.38-7.03-4.1-11.78-1.75-2.13,1.05-4.37,2.27-5.96,3.97-5.04,5.41-16.15,11.27-12.34,18.22,4.9,8.93,24.29,22.62,28.06,8.31,.66-2.52-.1-2.72-1.09-5.07Z"/><path d="M208.09,568.58c-1.05,2.67-4.02,5.56-2.79,8.16,2.07,4.39,9.37,7.55,13.6,5.18,1.87-1.05,1.16-4.23,1.09-6.32-.14-4.07-2-7.38-5.74-9.33-3.04-1.58-4.89-.91-6.15,2.31Z"/><path d="M196.45,276.26c5.32-4.13,3.71-8.58,1.75-12.86-2.02-4.42-2.1-8.28,1.72-11.85,2.19-2.05,3.87-4.6,1.93-7.69-.54-.86-1.98-1.72-2.93-1.64-3.6,.28-4.6,3.35-5.21,6.12-.64,2.89-1.13,5-4.3,6.7-5.44,2.93-5.94,9.29-2.06,14.25,1.11,1.41,2.03,2.97,2.85,4.19-1.92,2.28-3.93,3.71-4.52,5.58-1.21,3.84-3.76,6.22-7.06,7.84-4.79,2.36-5.57,6.29-4.95,10.95,.39,2.86,1.28,5.74,1.17,8.57-.51,12.94,5.97,22.52,14.56,31.1,2.41,2.41,5.45,3.41,8.55,1.25,3.22-2.23,2.11-5.22,.49-7.7-2.51-3.84-1.35-6.89,1.48-9.71,1.53-1.52,3.43-2.68,4.91-4.24,3.62-3.8,9.31-5.55,11.17-11.05,1.43-4.25,3.59-7.8,8.52-9.29-2.12-4.93-3.68-8.94-5.55-12.79-1.69-3.5-4.04-6.13-7.87-8.01-5-2.46-9.44-2.68-14.65,.28Z"/><path d="M221.81,540.74c4.78-3.02,3.89-8.51,4.74-13.07,.61-3.26,.61-6.83-.05-10.07-.65-3.19-2.04-6.45-3.91-9.11-2.42-3.44-9.45-4.77-12.51-2.63-4.89,3.42-9.58,7.13-14.27,10.82-2.81,2.21-4.25,5.2-4.12,8.84,.21,5.98,6.08,14,11.8,16.19,5.46,2.08,13.84,1.87,18.32-.96Z"/><path d="M208.58,489.58c2.45,4.09,5.68,7.75,8.88,11.34,2.4,2.7,4.72,2.31,7.22-.72,1.37-1.66,2.37-4.07,4.12-4.89,5.15-2.4,4.86-6.8,4.66-11.09-.15-3.09-1.14-5.96,.91-9.01,1.58-2.35,.37-4.9-2.34-5.79-4.97-1.64-10.08-2.9-15.47-4.42-3.08,6.03-6.23,11.44-8.57,17.19-.85,2.09-.57,5.45,.6,7.39Z"/><path d="M161.87,463.26c2.77,7.95,9.9,10.78,16.58,13.96,1.15,.55,3.67-.73,5.03-1.83,6.82-5.48,8.28-15.8,3.47-23.59-1.63-2.65-3.5-5.15-5.73-8.4-5.33,2.74-10.29,5.13-15.08,7.8-5.37,3-6.31,6.17-4.26,12.05Z"/><path d="M262.29,372.92c.7,1.3,1.46,2.51,2.03,3.81,5.73,13.06,12.49,14.67,23.6,5.6,5.05-4.12,5.83-9.01,2.31-14.4-4.8-7.34-16.44-8.35-22.52-1.84-1.95,2.09-3.58,4.48-5.43,6.83Z"/><path d="M302.2,508.6c-5.45-1.76-8.94,.29-12.18,6.66-.22,3.54-1.14,7.21-.51,10.58,1.42,7.57,9.14,10.23,14.83,5.1,2.55-2.3,4.56-5.63,5.77-8.89,1.9-5.12-2.27-11.64-7.91-13.46Z"/><path d="M334.56,443.8c-.14,.54-.38,1.23-.5,1.94-1.61,8.97,8.9,19.16,17.82,17.3,3.17-.66,4.71-3.06,3.8-6.59-1.77-6.88-5.96-12.1-11.93-15.79-3.23-2-7.7-.37-9.19,3.14Z"/><path d="M248.95,111.62c-5.15,1.63-7.59,4.71-7.33,9.39,.18,3.34,.49,6.68,.78,10.52,9.41,.6,12.44-.07,15.92-3.41,3.08-2.95,3.56-8.01,1.15-12.02-2.28-3.79-6.71-5.68-10.51-4.47Z"/><path d="M10.23,23.88c4.31,1.92,7.64,.17,9.18-4.08,1.82-5.02-.81-12.04-5.08-13.59C8.72,4.17,1.69,6.84,.3,11.57c-1.65,5.62,3.82,9.58,9.93,12.3Z"/><path d="M348.32,92.49c3.46,1.27,8.59-1.71,10.31-6,1.85-4.61-.65-9.1-6.27-11.24-4.7-1.79-10.45-.59-11.71,2.44-1.97,4.74,2.19,12.79,7.67,14.8Z"/><path d="M430.4,160.98c2.34-1.64,4.64-3.52,6.43-5.72,2.74-3.37,2.06-7.29,.45-10.94-1.26-2.86-3.79-5.04-6.83-4.05-2.69,.88-4.88,3.3-7.5,5.18,.38,4.94,.33,9.28,1.15,13.45,.6,3.02,3.69,3.91,6.29,2.09Z"/><path d="M207.63,382.84c-2.11,3.74-3.67,7.79-6.12,13.22,.04,.52-.33,2.89,.54,4.65,.83,1.69,2.9,3.72,4.52,3.8,1.4,.07,3.12-2.23,4.35-3.75,1.58-1.96,2.6-4.38,4.23-6.29,3.08-3.6,1.17-12.2-3.32-13.26-1.25-.3-3.61,.58-4.21,1.63Z"/><path d="M269.81,516.24c-4.4-1.88-8.89-.38-10.36,3.47-1.66,4.35,.24,10.61,3.7,12.14,3.81,1.69,10.15-.92,11.62-4.8,1.48-3.86-.92-9.08-4.97-10.81Z"/><path d="M374.16,18.58c3.36,2.85,6.91,2.8,9.55-.14,2.91-3.23,2.93-6.33-.13-9.53-1.49-1.55-3.2-2.91-4.91-4.22-4.35-3.32-6.47-2.65-8.41,2.56-1.58,4.25-.4,7.68,3.91,11.34Z"/><path d="M264.38,472.93c3.35,1.44,10.2-.8,11.59-3.78,1.63-3.52-.99-9.07-5.07-10.75-3.27-1.34-8.55,1.09-10.26,4.74-1.64,3.48,.2,8.27,3.75,9.79Z"/><path d="M295.24,207.48c3.25,1.33,6.24,.94,8.62-1.71,1.93-2.15,1.25-5.92-1.41-9.29-2.7-3.42-5.58-4.48-8.8-3.01-2.82,1.29-4.98,3.37-4.62,6.69,.39,3.69,2.73,6.09,6.22,7.32Z"/><path d="M367.66,377.02c3.58,1.11,5.87-.13,7.19-3.91,1.66-4.75-.41-10.34-4.32-11.67-3.39-1.16-7.73,1.26-9.19,5.12-1.57,4.16,1.3,8.91,6.31,10.46Z"/><path d="M205.45,223.21c3.07-.89,4.43-1.39,5.83-1.68,5.71-1.21,7.45-5.13,3.9-9.63-1.43-1.81-3.59-3.39-5.74-4.17-1.79-.65-4.77-.73-5.92,.34-1.22,1.13-1.48,4.02-1.14,5.96,.54,3.03,1.94,5.91,3.08,9.18Z"/><path d="M42.68,91.94c3.88,1.98,8.63,.08,10.81-4.33,1.7-3.44,.59-6.96-2.69-8.53-3.34-1.6-9.79,.44-11.52,3.64-1.56,2.89,.16,7.56,3.4,9.21Z"/><path d="M93.81,119.5c3.15,1.31,7.39-.25,8.69-3.19,1.51-3.4-.59-7.89-4.44-9.52-3.92-1.65-8.21-.44-9.43,2.66-1.36,3.47,1.17,8.38,5.18,10.04Z"/><path d="M154.64,131.97c5.59,1.2,8.2-2.51,11.88-7.45-3.68-1.97-6.41-3.97-9.47-4.92-3.73-1.16-7.35,1.64-7.91,5.36-.56,3.72,1.37,6.12,5.5,7.01Z"/><path d="M286.05,14.16c2.9,1.37,6.51-.65,8.47-4.73,1.7-3.54,.29-7.61-3.13-9.06-3.05-1.29-8.29,.93-9.74,4.13-1.24,2.74,1.23,8.15,4.4,9.65Z"/><path d="M356.22,276.44c-2.44,3.52-1.91,6.74,1.17,8.66,3.23,2.01,7.3,.95,9.31-2.41,2.7-4.52,.97-8.53-5.65-12.07-1.56,1.87-3.37,3.73-4.84,5.83Z"/><path d="M233.32,446.86c2.67,.89,6.01-1.03,7.38-4.26,1.59-3.75,.22-7.75-3.13-9.13-2.71-1.12-6.48,.56-7.76,3.47-1.46,3.32,.52,8.92,3.51,9.92Z"/><path d="M364.24,256.9c4.16,1.76,8.06,.4,9.61-3.34,1.62-3.91,.92-6.81-1.95-8.06-3.43-1.5-9.18,.77-10.44,4.12-1.13,3,.07,6.14,2.79,7.29Z"/><path d="M402.32,174.14c3.51,1.59,7.14,.41,8.55-2.78,1.35-3.07-.23-6.87-3.51-8.44-3.43-1.65-7.93,.04-9.84,3.68-1.37,2.63,.52,5.61,4.8,7.54Z"/><path d="M301.56,487.9c-1.05,2.94,.33,6.17,3.08,7.18,3.07,1.13,7.8-.54,8.8-3.11,1.1-2.84-.83-6.38-4.06-7.4-3.34-1.07-6.77,.39-7.82,3.33Z"/><path d="M134.55,338.53c-3.66-1.31-5.61-.16-6.09,2.36-.66,3.42,1.54,7.42,5.54,9.26,1.33,.61,3.82,.9,4.53,.15,1.09-1.16,2.03-3.84,1.41-4.97-1.56-2.84-4.04-5.17-5.38-6.78Z"/><path d="M98.35,365.3c1.99-1.07,3.24-2.6,2.27-4.54-.73-1.46-2.48-3.07-3.98-3.32-2.22-.37-4.63,.42-7.41,.78,.55,8.72,3.06,10.35,9.13,7.09Z"/><path d="M220.74,419.69c2.23-1.97,2.11-4.32,.35-6.36-2.45-2.84-5.45-4.56-10.6-2.4,1.33,2.94,2.14,5.44,3.51,7.58,1.75,2.72,4.59,3.07,6.75,1.18Z"/><path d="M213.65,173.9c4.27-3.01,2.61-6.8,1.58-10.29-.66-2.22-2.63-4.06-4.84-2.69-1.39,.86-2.62,3.57-2.35,5.18,.54,3.17,2.03,6.26,5.61,7.8Z"/><path d="M152.21,491.63c-1.68-.25-3.57,.9-4.68,1.22-1.24,3.94,.08,7.11,2.49,7.76,2.44,.66,4.25-.35,5.21-2.63,1.01-2.4-.46-5.97-3.03-6.35Z"/><path d="M186.82,509.09c-1.23-.25-3.43,.51-4.02,1.5-1.45,2.45,1.08,7.35,4.95,8.53,.76-.59,2.63-1.36,3.23-2.69,1.07-2.38-1.43-6.78-4.15-7.34Z"/><path d="M290.67,546.64c-2.46,5.03-1.92,8.24,1.49,10.46,.97,.64,3.02,.9,3.74,.32,.79-.65,1.28-2.9,.75-3.71-1.61-2.45-3.77-4.53-5.98-7.07Z"/><path d="M316.7,540.58c.83,2.15,1.52,4.38,2.54,6.44,.96,1.93,2.89,3.14,4.51,1.31,.9-1.02,1.14-3.93,.34-4.88-1.52-1.84-3.99-2.9-6.06-4.28-.45,.47-.89,.94-1.34,1.41Z"/><path d="M185.82,207.53c1.99,1.28,3.74-.32,3.87-2.62,.13-2.32-1.49-3.63-3.65-3.41-2.54,.26-5.02,1.08-8.13,1.79,1.23,5.55,5.52,2.69,7.91,4.23Z"/><path d="M235.15,70.19c-.1-1.87-.96-3.87-2.08-5.41-.28-.38-3.87,.72-3.89,1.22-.08,2.02,.65,4.07,1.36,7.44,2.44-1.65,4.65-2.51,4.61-3.25Z"/><path d="M314.28,561.53c-.51-.09-1.78,1.07-1.8,1.68-.07,3.19,1.27,5.44,4.79,5.73,.21,.02,.44-.17,1.77-.71-.23-3.34-1.06-6.01-4.76-6.7Z"/><path d="M99,263.01c-.43,.78,.64,2.41,1.04,3.65,1.38-.57,3.15-.82,4.01-1.84,.54-.63-.3-2.43-.69-4.73-2.01,1.26-3.73,1.79-4.36,2.92Z"/><path d="M69.05,491.81c.23-1.34-.56-2.86-1.11-5-1.64,1.08-3.27,1.65-3.28,2.24-.02,1.42,.72,2.85,1.15,4.27,1.13-.5,3.11-.85,3.23-1.52Z"/><path d="M294.63,295.21c.93,.05,1.91-.89,2.87-1.39-.49-.92-.97-2.61-1.48-2.62-1.17-.02-2.35,.78-4.36,1.58,1.43,1.24,2.17,2.4,2.97,2.44Z"/><path d="M192.38,236.53c.16,.2,2.23-.68,2.2-.84-.23-1.25-.61-2.53-1.28-3.58-.18-.27-1.57,.24-3.05,.5,.86,1.69,1.34,2.93,2.14,3.92Z"/><path d="M284.05,435.41c2.1-1.53,6.03-3.22,5.92-4.56-.25-2.98-1.88-6.62-4.18-8.42-2.02-1.57-5.71-.98-8.67-1.35,.45,2.15,.9,4.3,1.34,6.44,1.86,2.63,3.72,5.25,5.58,7.88Z"/><path d="M386.8,211.06c-.23,.97,.19,2.09,.34,3.15,1-.21,2.53-.13,2.87-.72,.41-.73-.18-2.02-.43-3.63-1.34,.54-2.67,.72-2.78,1.2Z"/><path d="M147.02,437.42c-.22-.26-1.41,.33-2.75,.69,.87,1.41,1.28,2.45,2.03,3.08,.25,.21,2.03-.73,1.99-.93-.2-1.01-.61-2.08-1.27-2.85Z"/><path d="M304.45,132.35c.23-.72-.11-1.99-.67-2.48-.45-.39-1.61,.04-2.46,.11,.09,1.04,.18,2.08,.33,3.83,1.41-.69,2.62-.91,2.8-1.46Z"/><path d="M199.71,177.06c.11,.14,1.61-.33,1.65-.63,.1-.78-.25-1.61-.5-2.8-1.06,.55-2.12,.9-2.1,1.13,.09,.81,.46,1.64,.95,2.3Z"/><path d="M107.86,179.35c-1.12-.49-2.24-.98-3.35-1.47-.2,.46-.4,.91-.59,1.37,1.15,.44,2.29,.87,3.44,1.31,.17-.4,.34-.8,.51-1.2Z"/><path d="M123.58,51.46c.49-1.42,1.01-2.15,.82-2.55-.22-.48-1.04-.7-1.6-1.02-.35,.67-.97,1.36-.94,2.01,.02,.47,.93,.89,1.72,1.57Z"/><path d="M261.96,219.93c.43-.46,1.03-.86,1.24-1.41,.22-.57,.06-1.29,.08-3.23-1.55,2.1-2.18,2.59-2.22,3.12-.03,.48,.57,1.01,.9,1.52Z"/><path d="M158.61,69.91c.4-.06,1.06-1.21,.93-1.38-.45-.59-1.18-.98-2.2-1.74-.25,1.22-.65,1.99-.42,2.35,.29,.46,1.15,.85,1.68,.77Z"/><path d="M103.21,288.47c-.36-.22-1.15,.25-2.03,.48,.49,.88,.68,1.73,1.16,1.94,.39,.17,1.5-.34,1.6-.72,.12-.51-.28-1.42-.74-1.71Z"/><path d="M17.74,300.16c.06,.43-.01,.99,.23,1.23,.21,.2,.78,.02,1.2,.01-.1-.57-.2-1.13-.3-1.7-.37,.15-.75,.3-1.12,.45Z"/><path d="M284.59,326.83c.09-1.81,.37-3.65,.1-5.41-.05-.31-2.37-.27-4.5-.48,.21,2,.1,3.91,.75,5.51,.22,.54,2.38,.28,3.66,.38Z"/><path d="M186.5,226.75c-.22-.56-.4-1.13-.7-1.64-.04-.06-.71,.26-1.32,.48,.31,.55,.54,1.12,.93,1.54,.11,.11,.71-.25,1.09-.39Z"/><path d="M138.41,265.41c-.28-.51-.74-.92-1.13-1.36-.28,.3-.56,.6-1,1.07,.46,.4,.88,.83,1.38,1.12,.08,.04,.82-.71,.76-.82Z"/></g></g></svg>