<?xml version="1.0" encoding="UTF-8"?><svg id="Layer_2" xmlns="http://www.w3.org/2000/svg" viewBox="0 0 100 100"><defs><style>.cls-1{fill:#fff;}.cls-2{fill:#ffa300;}</style></defs><g id="EPK"><circle class="cls-2" cx="50" cy="50" r="50"/><g><path class="cls-1" d="M49.85,23.02c8.91,0,9.97,.03,13.49,.19,3.25,.15,5.02,.69,6.2,1.15,1.56,.61,2.67,1.33,3.84,2.5,1.17,1.17,1.89,2.28,2.5,3.84,.46,1.18,1,2.94,1.15,6.2,.16,3.52,.19,4.58,.19,13.49s-.03,9.97-.19,13.49c-.15,3.25-.69,5.02-1.15,6.2-.61,1.56-1.33,2.67-2.5,3.84s-2.28,1.89-3.84,2.5c-1.18,.46-2.94,1-6.2,1.15-3.52,.16-4.58,.19-13.49,.19s-9.97-.03-13.49-.19c-3.25-.15-5.02-.69-6.2-1.15-1.56-.61-2.67-1.33-3.84-2.5-1.17-1.17-1.89-2.28-2.5-3.84-.46-1.18-1-2.94-1.15-6.2-.16-3.52-.19-4.58-.19-13.49s.03-9.97,.19-13.49c.15-3.25,.69-5.02,1.15-6.2,.61-1.56,1.33-2.67,2.5-3.84s2.28-1.89,3.84-2.5c1.18-.46,2.94-1,6.2-1.15,3.52-.16,4.58-.19,13.49-.19m0-6.02c-9.07,0-10.2,.04-13.76,.2-3.55,.16-5.98,.73-8.1,1.55-2.2,.85-4.06,1.99-5.91,3.85-1.86,1.86-3,3.72-3.85,5.91-.83,2.12-1.39,4.55-1.55,8.1-.16,3.56-.2,4.7-.2,13.76s.04,10.2,.2,13.76c.16,3.55,.73,5.98,1.55,8.1,.85,2.2,1.99,4.06,3.85,5.91,1.86,1.86,3.72,3,5.91,3.85,2.12,.83,4.55,1.39,8.1,1.55,3.56,.16,4.7,.2,13.76,.2s10.2-.04,13.76-.2c3.55-.16,5.98-.73,8.1-1.55,2.2-.85,4.06-1.99,5.91-3.85,1.86-1.86,3-3.72,3.85-5.91,.83-2.12,1.39-4.55,1.55-8.1,.16-3.56,.2-4.7,.2-13.76s-.04-10.2-.2-13.76c-.16-3.55-.73-5.98-1.55-8.1-.85-2.2-1.99-4.06-3.85-5.91-1.86-1.86-3.72-3-5.91-3.85-2.12-.83-4.55-1.39-8.1-1.55-3.56-.16-4.7-.2-13.76-.2h0Z"/><path class="cls-1" d="M49.85,33.24c-9.47,0-17.14,7.68-17.14,17.14s7.68,17.14,17.14,17.14,17.14-7.68,17.14-17.14-7.68-17.14-17.14-17.14Zm0,28.27c-6.15,0-11.13-4.98-11.13-11.13s4.98-11.13,11.13-11.13,11.13,4.98,11.13,11.13-4.98,11.13-11.13,11.13Z"/><circle class="cls-1" cx="67.67" cy="32.56" r="4.01"/></g></g></svg>