<?xml version="1.0" encoding="UTF-8"?><svg id="Layer_2" xmlns="http://www.w3.org/2000/svg" viewBox="0 0 816.72 690.51"><defs><style>.cls-1{fill:#ff8c1a;}</style></defs><g id="MUSIC"><g><path class="cls-1" d="M487.42,156.16c-2.17-3.53-5.14-6.15-9.33-6.92-4.24-.78-8.54-1.26-12.78-2.05-2.88-.54-6.05-.85-7.16-4.5,1.91-5.25,3.58-10.54,7.67-14.85,2.73-2.87,2-6.18-1.4-8.53-8.11-5.61-16.47-10.42-26.73-4.99-1.13,.6-2.61,.51-3.86,.95-6.5,2.26-9.2,6.61-8.66,13.76,.28,3.65,.34,7.32,.82,10.93,.46,3.48,1.34,6.9,2.07,10.49-6.41-2.23-12.64-3.72-18.22-6.5-6.59-3.28-13.13-4.27-20.24-3.04-3.6,.62-7.24,1-10.86,1.49,4.01-6.16,1.55-11.65-2.34-16.45-7.64-9.42-17.78-12.07-29.32-9.92q-2.03,4.47-8.2,7.88c-1.33,5.5-.45,11.03,.91,16.54,1.01,4.08,3.44,7.14,6.91,9.42,7.49,4.91,18.07,4.55,25.2-.99,2.34-1.82,4.41-3.98,6.6-5.99-4.4,9.09-2.19,18.87-2.66,27.69-2.47,2.69-4.43,4.92-6.48,7.06-3.93,4.12-1.49,7.59,2.54,9.25,2.61,1.08,5.18,1.19,7.62-.44,1.9-1.27,3.76-2.59,6.13-4.23,5.55,6.35,12.96,3.22,19.04,4.62,3.28-2.29,3.52-7.62,8.91-6.09-.31,2.62-.61,5.19-1.02,8.7-6.8-.71-9.9,4.02-12.87,8.95-.51,.84-.99,1.93-1.77,2.34-7.68,3.92-11.07,11.97-16.98,17.61-3.73,3.56-5.58,8.82-9.48,12.4,.51,4.95-3.32,7.45-5.73,10.92-2.67,3.83-5.31,7.54-8.62,10.87-3.36,3.38-4.94,7.77-6.16,12.35-1.27,4.78-.66,9.04,1.67,13.43,3.27,6.18,7.74,10.62,14.77,11.79,.42,1.76,.52,3.12,1.06,4.29,1.76,3.87,5.01,4.55,7.81,1.61,1.34-1.4,2.38-3.09,3.74-4.9,9.7,.39,19.32,.66,28.91,1.2,5.99,.34,11.05-1.47,15.58-5.33,3.27-2.79,6.79-5.27,10.11-8.01,4.62-3.81,9.32-7.54,12.24-12.97,2.18-4.05,4.46-8.04,6.7-12.07-1.42-5.52-1.62-11.07-.54-16.74,.74-3.9,.92-7.91,1.36-11.87,.43-3.96,.96-7.92,1.28-11.89,.31-3.84,2.48-6.07,5.92-7.19,4.09-1.33,8.23-2.5,11.97-3.63,2.15-4.37,3.95-8.58,6.24-12.52,2.84-4.89,3.5-9.96,2.37-15.38-.52-2.53-1.06-5.06-1.67-8,1.82-.87,3.34-1.45,4.72-2.28,3.59-2.15,4.33-4.85,2.23-8.27Zm-63.72,10.99c-.1,.05-.92-.96-.87-1.03,.54-.64,1.2-1.19,1.83-1.76,.31,.4,.62,.79,1.1,1.42-.69,.48-1.34,1.01-2.07,1.37Zm30.78-13.74c-.51-.03-.98-.56-1.47-.88,.5-.27,.99-.53,1.48-.8,.49,.31,.98,.62,1.47,.94-.5,.27-1.01,.76-1.49,.73Z"/><path class="cls-1" d="M731.54,110.45c-3.37-5.72-6.94-11.33-10.19-17.12-2.67-4.76-6.11-8.72-10.66-11.66-12.68-8.19-25.89-15.03-41.32-16.39-2.93-.26-6.34-.53-8.57-2.13-3.65-2.61-6.58-2.09-10.11-.29-12.14,6.18-24.31,12.32-36.57,18.26-9.09,4.41-15.84,10.86-19.39,20.44-.69,1.87-1.26,3.8-2.08,5.61-3.51,7.74-2.42,15.68-.76,23.52,.52,2.47,2.12,4.91,3.81,6.88,3.89,4.55,7.99,8.94,12.25,13.14,6.04,5.95,13.12,9.88,21.6,11.71,8.6,1.85,17.19,1.57,25.05,1.6q21.3-.71,39.78-6.78c.32-.1,.64-.18,.95-.3,11.48-4.48,22.86-9.19,32.86-16.6,7.9-5.85,10.36-13.59,7.06-22.82-.88-2.47-2.36-4.75-3.7-7.04Z"/><path class="cls-1" d="M412.39,671.3c-.74-.64-1.69-1.04-2.53-1.56-5.77-3.59-6.49-5.32-3.94-11.27,1.83-4.26,4.09-8.33,6.16-12.49v-17.69c-.22-.15-.98-.84-1.87-1.24-3.68-1.66-5.84-4.19-5.6-8.49,.21-3.61-1.65-6.11-4.38-8.46-4.01-3.44-7.38-7.6-13.14-8.35-2.79-.37-4.36-2.72-6.21-4.68-1.23-1.3-3.62-2.82-5.01-2.44-5.38,1.44-9.67-1.41-14.06-2.96-1.23,.5-2.37,.64-3.03,1.28-3.69,3.57-7.65,4.46-12.73,2.92-3-.91-6.5-.17-9.99-.17-1.46,7.96-4.63,13.68-12.82,15.21-2.97,.56-4.07,3.21-3.74,6.22,.68,6.28-2.27,10.07-8.06,12.02-.53,.18-.88,.9-1.76,1.86,1.45,1.6,3,3.19,4.4,4.9,1.71,2.1,1.59,4.52-.44,6.18-1.9,1.55-4.01,2.85-6.69,4.72,3.62,1.51,6.29,2.63,9.32,3.9-.71,3.14-1.33,5.88-1.89,8.34,2.16,1.8,3.84,3.2,5.57,4.64-1.69,1.57-3.25,4.23-3.61,6.24,2.68-.63,5.1-1.2,7.79-1.83,.85,2.27,1.63,4.38,2.55,6.85,7.52,1.88,13.97,5.7,19.15,13.18,6.15-5.18,11-.04,16.58,2.4,4.37-5.21,9.92-4.67,14.4-3.51,3.68-2.36,6.24-5.13,9.18-5.62,4.99-.85,8.63-2.42,11.14-7.1,.9-1.68,3.68-2.57,5.79-3.31,2.18-.77,3.65,.95,5.1,2.37,.69,.68,1.53,1.41,2.43,1.64,.83,.22,2.16,.13,2.68-.4,1.17-1.2,.26-2.41-.75-3.28Z"/><path class="cls-1" d="M398.58,60.7c3.72,2.64,5.45,6.61,7.03,10.67,.84,2.17,1.72,4.33,2.44,6.54,5.1,15.7,22.76,25.46,37.44,24.62,2.32-.13,4.65-.2,6.97-.41,4.08-.38,7.91-.06,11.34,2.64,1.54,1.21,3.44,2.05,5.27,2.8,7.61,3.12,16.22,.92,21.69-5.42,6.36-7.37,6.81-11.69,1.46-20.7-1.44-2.43-1.92-4.74-2.13-7.45-.49-6.29-.97-12.63-2.22-18.8-2.93-14.51-10.76-24.8-25.87-28.44-3.46-.83-6.88-2.1-9.55-4.49,1.16-3.18,2.16-5.94,3.18-8.71,1.08-2.92,1.45-5.8-.29-8.63-2.09-3.42-5.06-5.08-9.36-4.92-1.06,1.21-2.13,2.44-3.22,3.65q-7.34,8.17-3.93,18.09c-6.65,1.88-13.34,3.6-19.92,5.69-7.74,2.46-14.42,6.91-20.28,12.39-6.25,5.84-7.43,15.64-.05,20.87Z"/><path class="cls-1" d="M258,100.18c3.73,1.2,7.59,2,11.55,3.02,.1,2.14-.02,4.12,.32,6.02,.55,3.04,2.94,4.84,5.58,4.55,2.57-.28,4.75-2.5,4.86-5.45,.07-1.89-.46-3.8-.78-6.18,2.96-.61,5.96-.9,8.72-1.86,9.85-3.44,19.74-6.91,20.41-19.96,.09-1.69,1.52-4.03,2.99-4.79,5.23-2.7,10.22-6.41,15.16-5.95,4.2,1.93,7.07,3.44,10.07,4.6,3.06,1.19,6.23,2.12,9.41,2.99,.89,.24,2.05,.08,2.91-.3,5.15-2.29,10.4-4.43,15.32-7.15,4.32-2.4,4.42-7.89,.29-10.69-2.13-1.44-4.78-2.31-7.32-2.88-2.88-.64-5.91-.66-9.05-.96-.58-1.28-1.25-2.42-1.64-3.66-1.05-3.31-3.68-4.84-6.7-5.22-5.26-.66-10.6-1.21-15.88-1.07-5.41,.15-10.38,2.09-14.34,6.11-1.57,1.6-3.35,3-5.18,4.63-5.46-2.68-6.64-8.93-10.93-11.67-4.9-3.13-6.91-8.36-10.63-12.75-4.41,2.79-8.67,3.41-13.56,2.79-9.44-1.2-18.25,.7-26.48,6.25-10.23,6.9-16.02,18.34-12.25,29.86,4.49,13.71,12.5,24.98,27.16,29.71Z"/><path class="cls-1" d="M213.52,422.51c-2.94-9.27-8.38-16.37-17.11-21.09-7.93-4.29-16.56-4.57-25.14-5.32-1.26-.11-2.62,.38-3.88,.77-11.17,3.47-17.65,10.15-18.57,25.32-.36,5.92,.41,11.96,1.21,17.87,.39,2.85,1.38,6.18,3.28,8.15,6.46,6.67,13.41,12.91,22.54,15.86,1.87,.61,3.87,.82,7.15,1.48,3.03-.72,7.49-1.07,11.3-2.82,15.96-7.35,19.99-23.15,19.67-38.28-.01-.65-.25-1.3-.45-1.94Z"/><path class="cls-1" d="M478.65,431.67c1.46-3.61,1.78-7.68,2.62-11.55-.21-.05-.42-.09-.63-.14,.21-1.95,1.21-4.29,.49-5.78-3.03-6.23-4.93-13.23-10.39-18.01-20.12-17.57-44.51-7.74-52.72,10.27-3.68,8.06-3.35,16.13-2.13,24.42,.14,.94,.56,1.94,1.13,2.7,4.21,5.61,8.69,10.9,15.01,14.36,17.49,9.58,39.14,2.17,46.62-16.28Z"/><path class="cls-1" d="M335.15,194.66c.95-1.43,3.24-2.24,5.07-2.74,1.86-.5,3.93-.27,4.9-.32,5.37-3.57,9.96-6.62,15.05-10-2.05-2.63-4.24-4.44-5.09-6.75-1.66-4.5-4.97-5.83-9.15-6.38-6.23-.82-12.43-1.94-18.68-2.58-9.06-.93-17.87-.82-24.78,6.73-2.66,2.91-5.73,5.52-8.9,7.87-1.98,1.47-3.29,3.23-4.06,5.37-.97,2.72-2.62,4.09-5.39,5.16-3.87,1.51-4.66,5.91-1.87,8.89,1.25,1.33,3.46,2.86,5,2.64,6.79-.95,13.08,1.42,19.6,2.11,10.77,1.14,21.32,.5,28.3-10.02Z"/><path class="cls-1" d="M373.75,71.32c.07,.12,.14,.24,.21,.35,0,0,.09-.01,.14-.02l-.35-.34Z"/><path class="cls-1" d="M364.49,77.1c-.8,3.28,.48,5.9,3.09,7.8,1.22,.89,2.74,1.37,4.86,2.4-3.14,3.8-5.82,7.05-8.63,10.45,.28,5.18,.11,10.49,3.12,15.01,3.46,1.08,6.58,2.13,9.75,3.02,6.16,1.72,12.42,2.23,18.71,.87,1.57-.34,3.29-.88,4.49-1.87,8.59-7.08,11.4-20.45,6.67-30.89-1.34-2.95-2.77-3.73-6.27-3.34-7.53,.85-15.06,1.72-23.29,2.66,.97-4.49-.98-8.03-3.04-11.53-1.26,.17-2.53,.29-3.78,.53-2.79,.56-4.96,1.96-5.68,4.88Z"/><path class="cls-1" d="M256.11,144.54c-1.23,.17-2.44,.9-3.53,1.59-5.24,3.33-10.43,6.74-15.72,10.17-1.8-1.27-3.14-2.17-4.44-3.13-4.23-3.15-10.38-1.47-13.6,3.64-2.09,3.33-1.51,6.3,.28,9.28,1.85,3.08,5.16,4.59,8.5,3.62,2.5-.72,4.82-2.05,7.75-3.34,1.77,2.14,2.81,3.93,4.32,5.13,7.01,5.57,14.71,8.89,23.88,6.26,8.79-2.52,13.06-10.23,11.66-19.15-1.22-7.81-11.36-15.13-19.11-14.08Z"/><path class="cls-1" d="M574.29,183.36c-5.28-3.64-11.02-4.7-16.79-1.36-6.58,3.81-11.55,8.99-11.42,17.27,.17,11.06,11.07,21.43,22.18,21.27,13.54,.41,21.06-13.26,17.37-23.91-2.12-6.12-6.43-9.87-11.35-13.27Z"/><path class="cls-1" d="M101.22,261.75c-3.15-1.11-6.31-.76-9.24,1.76-2.72,2.33-6.14,3.83-9.16,5.82-1.32,.87-2.88,1.84-3.55,3.15-5.95,11.56,3.11,27.77,15.73,27.94,12.43,.17,20.57-7.19,20.62-19.98,1.16-10.49-6.31-15.84-14.4-18.69Z"/><path class="cls-1" d="M493.1,608.06c-6.33-2.99-15.25-1.59-20.37,3.36-2.6,2.51-4.87,5.36-7.41,8.2,1.04,4.75,1.69,8.32,2.64,11.82,.42,1.55,1.15,3.2,2.22,4.36,7.53,8.19,20.7,12.37,30.31-1.15,1.33-1.87,2.67-3.73,4.07-5.69-.88-3.69-1.67-7.24-2.59-10.75-1.26-4.84-4.47-8.07-8.88-10.15Z"/><path class="cls-1" d="M30.18,198.07c-5.24-1.78-10.81-3.47-16.06,.79-1.46,1.18-3.63,1.51-5.52,2.11-5.51,1.74-7.5,6.15-8.38,11.24-.93,5.42,1.1,9.75,5.58,12.86,4.51,3.13,9.7,4.08,15.52,4.36,5.69,.62,10.67-1.81,14.31-6.51,7.81-10.11,3.06-21.96-5.45-24.84Z"/><path class="cls-1" d="M501.4,212.61c-6.44-4.83-13.79-6.13-20.56,.89-2.73,2.83-5.58,5.53-8.77,8.68,0,2.11-.02,4.73,0,7.35,.05,5.56,2.95,9.2,7.62,11.92,3.94,2.29,8.07,2.86,12.46,2.52,7.17-.55,14.06-5.59,15.8-11.83,2.15-7.74-.32-14.86-6.55-19.53Z"/><path class="cls-1" d="M97.11,213.19c8.68-1.85,15.45-9.64,14.85-17.46-.44-5.74-3.47-10.1-8.71-12.41-2.95-1.3-6.32-1.67-8.71-2.26-5.39,3.58-10.03,6.67-15.99,10.63-1.24,3.19-2.02,6.97-.56,11.01,2.92,8.06,10.59,12.31,19.11,10.5Z"/><path class="cls-1" d="M157.16,171.14c8.15,.37,13.72-5.57,13.48-13.7-.13-4.29-2.05-7.72-4.57-10.77-3.66-4.42-9.6-4.47-13.97-.54-2.94,2.64-5.93,5.24-8.83,7.81-.45,6.68,.35,10.57,2.94,13.11,3.02,2.96,6.94,3.91,10.95,4.09Z"/><path class="cls-1" d="M185.64,246.09c2.79-1.41,5.13-3.37,5.28-6.65,.18-3.9,1.48-7,4.58-9.42,.73-.57,1.14-1.6,1.57-2.49,2.72-5.59-1.93-12.83-8.09-12.62-5.18,.17-8.59,2.56-10.04,7.94-1.11,4.12-1.75,8.16-4.7,11.68-2.41,2.88-1.35,7.09,1.4,9.89,2.68,2.73,6.58,3.38,9.99,1.66Z"/><path class="cls-1" d="M574.22,230.28c-4.94-.52-9.6,3.76-9.9,9.09-.26,4.57,3.63,8.84,8.54,9.39,5.51,.62,9.82-2.93,10.21-8.43,.38-5.32-3.27-9.47-8.85-10.05Z"/><path class="cls-1" d="M300.88,241.3c-.34-3.43,.03-7.37-3.82-9.38-4.03-2.11-7.58-.94-10.62,2.23-.45,.47-1.08,.75-1.57,1.18-2.95,2.54-3.53,5.31-1.84,8.65,2.19,4.31,8.04,6.58,12.59,4.89,3.48-1.29,5.21-3.74,5.25-7.57Z"/><path class="cls-1" d="M320.1,120.63c.32,4.18,3.89,7.52,7.81,7.3,4.31-.24,8.14-3.72,7.95-7.24-.23-4.52-3.35-8.54-6.66-8.61-4.65-.1-9.42,4.38-9.1,8.55Z"/><path class="cls-1" d="M338.32,308.96c-2.24,1.7-2.87,4.46-1.68,7.02,1.43,3.09,4.18,4.62,8.06,4.47,3.48-.13,5.6-1.65,6.69-4.79,1-2.88,.15-5.58-2.47-7.88-2.5-2.19-4.63-2.29-8.09-.37-.86,.48-1.73,.96-2.51,1.55Z"/><path class="cls-1" d="M27.41,491.66c-2.76,.73-5.58,1.48-8.22,2.17-2.79,6.37-2.48,9.05,1.14,11.33,3.61,2.27,7.73,1.48,10.35-2.25,.9-1.28,1.79-3,1.69-4.45-.22-3.05-1.62-5.68-4.97-6.81Z"/><path class="cls-1" d="M109.82,246.18c-1.74,.79-3.33,1.94-5.49,3.23,.47,2.26,.49,4.63,1.49,6.47,.85,1.56,2.67,2.87,4.35,3.66,2.77,1.29,6.19,.2,7.96-2.03,2.21-2.79,2.32-6.29,.28-9.07-2.13-2.91-5.19-3.8-8.59-2.25Z"/><path class="cls-1" d="M534.01,140.08c-.21-1.44-1.11-3.39-2.29-3.96-2-.97-4.45-1.05-5.49-1.25-2.27,.11-3.27,.13-4.26,.21-.66,.05-1.33,.12-1.97,.26-2.45,.53-4.13,2.56-4.11,4.91,.02,2.35,1.72,4.8,3.91,5.17,4.38,.75,8.64,.15,12.5-2.06,.94-.54,1.86-2.26,1.71-3.28Z"/><path class="cls-1" d="M255.98,221.99c-2.47,.26-5.03,1.42-7.13,2.81-1.99,1.31-2.77,3.62-1.77,6.15,1.26,3.2,3.77,5.07,6.69,4.92,3.28-.17,5.84-2.07,7.55-5.59,1.85-3.8-1.12-8.73-5.33-8.29Z"/><path class="cls-1" d="M148.91,111.72c3.69,.65,6.55-.85,8.73-4.76,2.2-3.95-.49-8.88-5.85-9.45-.56,.22-1.89,.48-2.87,1.2-1.3,.95-2.29,2.31-3.5,3.41-3.66,3.32-.9,8.84,3.48,9.61Z"/><path class="cls-1" d="M234.54,140.33c-2.51,2.34-2.19,5.59,.52,7.74,2.53,2.01,5.39,2.67,8.37,1.39,2.69-1.16,3.86-3.77,4.08-6.42,.32-3.83-2.08-6.03-6.54-7.64-2.28,1.72-4.51,3.15-6.43,4.93Z"/><path class="cls-1" d="M302.81,105.68c-2.59,.25-5.16,.72-7.72,1.09,.81,2.31,1.51,4.79,2.53,7.11,1.49,3.38,4.84,4.82,8.19,3.78,3-.93,4.97-4.02,4.41-6.9-.63-3.26-3.72-5.44-7.41-5.08Z"/><path class="cls-1" d="M80.57,116.48c-.2-2.91-3.98-5.73-7.16-5.35-3.65,.44-7.25,5.12-6.56,8.53,.51,2.53,3.9,4.53,7.07,4.18,3.75-.41,6.89-3.88,6.64-7.35Z"/><path class="cls-1" d="M120.46,205.45c-4.32,.16-8.55,3.83-8.05,6.99,.61,3.89,3.78,6.46,7.59,6.16,3.48-.28,6.72-3.38,6.5-6.22-.23-2.94-3.78-7.01-6.04-6.93Z"/><path class="cls-1" d="M352.7,236.78c2.72-.75,4.87-3.53,5.13-7.43-.69-.93-1.49-2.97-2.95-3.75-1.49-.8-3.85-.93-5.45-.34-1.69,.62-3.18,2.28-4.3,3.81-.63,.86-.8,2.58-.39,3.59,1.33,3.27,4.93,4.97,7.97,4.13Z"/><path class="cls-1" d="M152.97,257.4c2.51-.89,3.85-2.98,3.93-6.13,.09-3.45-.97-5.94-3.01-6.7-2.57-.97-4.31,.61-6.03,2.16-.72,.65-1.59,1.17-2.25,1.88-1.6,1.7-1.7,4.24-.37,6.31,1.64,2.53,4.76,3.54,7.72,2.48Z"/><path class="cls-1" d="M61.95,191.55c-1.89,.99-3.63,1.87-5.33,2.81-.57,.31-1.33,.71-1.5,1.23-.39,1.17-.99,2.65-.6,3.65,1.75,4.44,7.72,6.27,11.61,3.79,2.94-1.88,3.62-6.17,1.06-8.54-1.39-1.28-3.37-1.92-5.23-2.94Z"/><path class="cls-1" d="M150.15,234.7c.05-2.75-2.17-5.39-4.62-5.5-3.74-.18-7.83,3.15-7.58,6.17,.22,2.76,2.96,5.32,6,5.62,3.2,.31,6.14-2.66,6.21-6.29Z"/><path class="cls-1" d="M513.75,157.64c-3.47-.55-7.53,2.71-7.46,6.01,.06,2.84,2.78,5.15,6.05,5.12,3.17-.03,5.61-2.33,5.77-5.44,.13-2.68-1.87-5.3-4.36-5.69Z"/><path class="cls-1" d="M164.26,108.55c2.05,1.21,5.55-.12,7.04-2.15,1.33-1.81,1.15-3.8,.06-5.57-.8-1.3-2.04-2.33-3.26-3.68-2.16,1.15-4.1,1.8-5.49,3.05-1.08,.97-2.31,2.97-1.97,4.04,.52,1.68,2.06,3.38,3.62,4.3Z"/><path class="cls-1" d="M554.56,177.57c2.43,.13,5-3.13,4.95-6.29-.04-2.58-2.65-5.02-5.19-4.86-3.19,.21-6.27,3.86-5.71,6.77,.4,2.11,3.29,4.24,5.95,4.38Z"/><path class="cls-1" d="M175.62,135.6c3.01,1.52,6.19,.14,6.9-3.05,.42-1.91,.57-3.88,.85-5.82,0,0,.05,0,.08,0,.04-.32,.22-.73,.09-.96-.6-1.06-1.1-2.64-2.01-2.94-.9-.3-2.69,.35-3.3,1.17-1.73,2.33-3.3,4.86-4.45,7.51-.66,1.53,.18,3.23,1.85,4.07Z"/><path class="cls-1" d="M244.36,192.87c2.35-.78,3.9-2.4,4.12-4.91,.29-3.28-.82-5.74-4.92-6.42-1.79,1.37-3.91,2.83-5.83,4.52-1.4,1.24-1.08,3.76,.4,5.24,1.77,1.76,3.85,2.36,6.23,1.57Z"/><path class="cls-1" d="M810.78,381.46c-2.7,.47-5.35,4-4.93,6.6,.39,2.44,3.13,4.36,5.99,4.21,2.75-.15,4.99-2.6,4.88-5.31-.13-3.03-3.28-5.95-5.94-5.49Z"/><path class="cls-1" d="M47.83,233.4c-.98,.47-2.96,.99-4.33,2.2-1.03,.91-1.83,2.73-1.76,4.1,.1,2.08,1.77,3.41,3.88,3.83,2.85,.56,6-1.42,6.85-4.22,.77-2.51-1.26-5.69-4.65-5.91Z"/><path class="cls-1" d="M606.6,303.1c-2.44,.17-5.54,3.21-5.99,5.86-.38,2.27,2.34,4.78,5.23,4.82,3.08,.04,5.67-2.47,5.76-5.59,.08-2.68-2.47-5.27-5-5.09Z"/><path class="cls-1" d="M533.61,326.97c-1.88-1.43-3.7-1.2-5.36,.36-1.18,1.12-2.26,2.34-3.49,3.63,1.31,4.1,3.41,5.39,6.41,5.03,2.17-.26,3.61-1.7,4.21-3.74,.62-2.08,0-3.93-1.77-5.28Z"/><path class="cls-1" d="M688.47,339.69c-1.99,.02-3.74,1.68-3.86,3.66-.19,3.39,2.5,6.09,6.11,6.15,2.33,.04,4.6-2.08,4.49-4.2-.16-3.22-3.08-5.65-6.75-5.61Z"/><path class="cls-1" d="M718.09,48.71c2.76-.29,4.73-2.61,4.58-5.39-.16-2.94-2.34-5.38-4.74-5.3-2.63,.08-5.81,3.85-5.84,6.9-.02,2.13,3.08,4.09,6,3.79Z"/><path class="cls-1" d="M379.59,71.85c3.13-.72,6.5-1.67,7.38-5.53,.11-.48-.37-1.35-.84-1.67-2.46-1.67-7.47-1.27-10.23,.66-2.24,1.57-1.44,3.98-1.78,6.08,1.85,.26,3.76,.85,5.46,.46Z"/><path class="cls-1" d="M373.76,71.33l.34,.33c.02-.09,.02-.18,.04-.27-.12-.02-.25-.05-.38-.06Z"/><path class="cls-1" d="M288.35,176.61c.03-2.19-2.06-4.41-4.34-4.63-2.65-.25-5.16,1.95-5.34,4.68-.15,2.3,1.91,4.53,4.22,4.58,2.77,.06,5.43-2.19,5.46-4.63Z"/><path class="cls-1" d="M222.79,259.45c-3.15,.4-6.08,3.34-5.68,5.72,.36,2.15,2.74,3.89,5.12,3.76,2.85-.16,4.98-2.36,4.95-5.12-.03-2.43-2.24-4.63-4.4-4.36Z"/><path class="cls-1" d="M339.14,41.33c2.55,.1,5.11-2.3,5.22-4.88,.1-2.29-1.76-4.49-4.06-4.82-3.02-.43-5.85,2.19-5.71,5.28,.1,2.19,2.3,4.33,4.54,4.42Z"/><path class="cls-1" d="M241,464.49c-1.96,1.18-2.8,3.58-1.63,5.03,2.23,2.78,4.67,5.33,9.18,6.58-.29-4.36-1.38-7.74-3.18-10.82-.91-1.56-2.68-1.81-4.36-.79Z"/><path class="cls-1" d="M419.61,449.99c-.98-.58-2.49-.98-3.48-.62-1.07,.39-1.96,1.63-2.62,2.69-2.2,3.56-1.88,7.26-.66,10.94,5.91,.13,6.07-.25,2.88-6.19,1.72-1.63,3.23-2.8,4.35-4.27,.38-.5,.05-2.25-.47-2.55Z"/><path class="cls-1" d="M183.39,154.94c.43,2.05,2.81,3.58,5.31,3.39,2.86-.21,4.88-2.43,4.68-5.16-.17-2.34-2.45-4.38-4.58-4.09-2.91,.39-5.88,3.61-5.41,5.86Z"/><path class="cls-1" d="M226.77,208.62c-2.19-.6-5.05,2.64-5.04,4.99,0,1.7,2.13,3.6,4.07,3.63,2.34,.03,4.29-2.02,4.27-5.43-.76-.78-1.81-2.78-3.29-3.19Z"/><path class="cls-1" d="M392.1,199.76c2.52-.26,4.52-2.85,4.29-5.55-.21-2.4-2.2-4.18-4.59-4.11-2.76,.09-4.59,2.46-4.17,5.4,.38,2.62,2.33,4.48,4.47,4.26Z"/><path class="cls-1" d="M459.07,231.54c.02,1.9,1.83,3.78,3.73,3.86,2.57,.1,4.94-2.46,4.67-5.99-1.07-.65-2.52-2.17-4.1-2.32-2.27-.22-4.33,2.35-4.31,4.46Z"/><path class="cls-1" d="M57.49,61.91c2.49-.31,4.1-2.29,3.88-4.76-.17-2.01-2.17-3.8-3.95-3.54-2.94,.42-5.52,2.89-5.15,4.92,.39,2.17,2.74,3.69,5.23,3.38Z"/><path class="cls-1" d="M198.86,234.71c-2.31-.09-4.53,1.93-4.49,4.1,.04,2.08,2.38,4.17,4.59,4.1,2.21-.07,4.07-2.34,3.81-4.65-.22-1.98-1.87-3.48-3.9-3.55Z"/><path class="cls-1" d="M200.23,102.04c2.62-.03,4.42-1.86,4.24-5.28-.91-.69-2.23-2.51-3.72-2.66-2.61-.27-5.41,2.87-5.11,4.9,.22,1.53,2.54,3.07,4.59,3.04Z"/><path class="cls-1" d="M183.98,116.14c2.19,0,3.92-1.48,4.05-3.47,.14-2.07-1.4-3.99-3.36-4.19-2.23-.23-4.54,1.84-4.62,4.12-.07,1.9,1.75,3.54,3.92,3.54Z"/><path class="cls-1" d="M605.77,218.5c-.93-.69-2.19-2.23-3.74-2.6-2.24-.54-4.43,1.75-4.42,3.96,.01,1.89,1.74,3.53,3.77,3.59,2.47,.07,4.49-1.79,4.38-4.94Z"/><path class="cls-1" d="M372.39,315.11c-2.07-.49-4.05,1.15-4.42,3.04-.38,1.91,1.54,4.01,3.68,3.46,1.61-.42,2.95-1.87,5.24-3.43-2.06-1.46-3.16-2.75-4.5-3.07Z"/><path class="cls-1" d="M493.19,51.64c2.11-.15,3.54-1.76,3.45-4.62-.72-.58-1.74-2.03-3-2.28-2.17-.43-4.38,2.17-3.96,4.37,.34,1.82,1.66,2.67,3.52,2.53Z"/><path class="cls-1" d="M451.59,264.83c-.47,1.74,.71,3.3,2.51,3.25,1.23-.04,2.42-1.21,4.64-2.43-2.12-1.45-3.21-2.69-4.47-2.87-.82-.12-2.43,1.14-2.68,2.06Z"/><path class="cls-1" d="M300.02,625.56c-1.04,.03-2.48,.93-2.96,1.84-.84,1.58,1.04,3.49,4.11,3.82,.51-.42,1.79-.99,2.26-1.96,.74-1.54-1.2-3.77-3.41-3.7Z"/><path class="cls-1" d="M394.84,490.52c1.37-1.77,2.62-2.83,3.1-4.16,.49-1.37-1.47-3.08-3.07-3.06-2.19,.03-4.29,1.92-3.6,3.6,.51,1.25,2.02,2.1,3.58,3.62Z"/><path class="cls-1" d="M734.39,80.78c-1.46,1.75-2.89,2.93-3.56,4.46-.53,1.21,1.77,2.6,3.5,2.28,2.2-.41,3.89-2.34,3.14-3.96-.45-.96-1.67-1.56-3.08-2.78Z"/><path class="cls-1" d="M78.2,154.85c-.91,1.53-.21,3.1,1.51,3.83,2.3,.96,3.57-.22,4.43-2.8-.86-.64-1.73-1.73-2.79-1.95-.99-.2-2.72,.2-3.15,.92Z"/><path class="cls-1" d="M201.05,155.58c-.7-.17-2.21,1.15-2.65,2.12-.71,1.59,.65,3.7,2.19,3.46,1.34-.21,2.55-1.28,4.71-2.45-1.94-1.52-2.98-2.82-4.25-3.13Z"/><path class="cls-1" d="M386.87,361.19c-.64,1.85,1.39,4.74,2.68,4.13,1.24-.58,2.07-2.03,3.56-3.61-1.57-1.28-2.55-2.59-3.76-2.86-.66-.15-2.14,1.33-2.49,2.33Z"/><path class="cls-1" d="M397.81,433.78c-.4-.96-1.89-2.29-2.55-2.12-1.22,.31-2.19,1.61-3.9,3.02,1.8,1.1,2.74,2.04,3.83,2.27,1.43,.3,3.21-1.79,2.63-3.16Z"/><path class="cls-1" d="M8.25,260.66c-1.68-.7-4.25,1.35-3.78,3.07,.26,.97,1.66,2.35,2.45,2.29,1.28-.09,2.48-1.22,4.42-2.31-1.43-1.47-2.1-2.64-3.08-3.05Z"/><path class="cls-1" d="M243.54,242.81c-.39,1.32,.43,2.8,1.99,2.58,1-.14,2.34-1.19,2.62-2.11,.25-.8-.77-2-1.61-3.86-1.5,1.63-2.7,2.38-3,3.39Z"/><path class="cls-1" d="M181.97,207.59c-.92-.05-1.9,1.1-3.6,2.21,1.62,1.12,2.62,2.34,3.44,2.23,.92-.12,1.68-1.44,2.51-2.24-.78-.79-1.53-2.16-2.35-2.21Z"/><path class="cls-1" d="M86.99,108.98c-1.44-1.09-2.35-2.14-2.71-1.98-1.31,.59-2.52,1.5-3.55,2.52-.17,.17,1.03,2.12,1.1,2.09,1.54-.66,3.02-1.49,5.17-2.64Z"/><path class="cls-1" d="M234.91,268.73c-.66,.12-1.74,1.54-1.58,1.95,.5,1.25,1.5,2.3,2.73,4.03,.91-1.6,1.7-2.35,1.67-3.07-.07-1.66-.73-3.29-2.83-2.91Z"/><path class="cls-1" d="M29.03,376.53c0-.8,.07-1.13-.01-1.42-.43-1.62-1.25-3.02-3.12-2.82-.62,.07-1.64,1.17-1.61,1.76,.08,1.82,1.5,2.53,3.17,2.73,.29,.03,.59-.09,1.57-.25Z"/><path class="cls-1" d="M529.16,96.83c1.15-.93,2.05-2.16,3.36-3.65-1.49-.73-2.4-1.58-3.04-1.41-1.63,.45-3.05,1.56-2.41,3.53,.23,.7,1.9,1.68,2.09,1.52Z"/><path class="cls-1" d="M217.47,16.18c-.97-1.36-3.16-1.42-3.9-.04-.27,.49,.24,2,.72,2.17,.96,.35,2.13,.1,3.22,.1,0-1.12,.23-1.86-.04-2.24Z"/><path class="cls-1" d="M121.19,465.22c.11,.78,.86,1.78,1.57,2.05,.5,.18,2.06-.89,2-1.09-.29-1.06-.93-2.01-1.8-3.66-.97,1.39-1.86,2.12-1.78,2.7Z"/><path class="cls-1" d="M575.77,354.75c-.31,.52,.23,1.55,.5,2.88,1.16-.85,2.18-1.24,2.48-1.93,.23-.53-.44-1.45-.71-2.19-.78,.39-1.88,.6-2.26,1.23Z"/><path class="cls-1" d="M373.38,515.49c.78-.15,1.5-.62,2.24-.96-.39-.67-.78-1.35-1.44-2.5-.79,.99-1.42,1.53-1.65,2.2-.11,.3,.64,1.3,.86,1.26Z"/><path class="cls-1" d="M488.91,198.78c.59,.25,1.34,.86,1.73,.68,.69-.31,1.16-1.11,1.73-1.7-.53-.32-1.07-.65-1.87-1.14-.52,.7-1.05,1.43-1.58,2.16Z"/><path class="cls-1" d="M209.92,111.89c.16-.54-.6-1.34-2.11-4.3-.6,2.14-1.1,3.04-1.01,3.88,.07,.67,.85,1.27,1.31,1.89,.64-.48,1.63-.86,1.81-1.48Z"/><path class="cls-1" d="M495.05,346.91c-.3,.71-.67,1.38-.82,2.1-.02,.11,1.19,.75,1.39,.59,.56-.45,.89-1.19,1.32-1.82-.52-.24-1.04-.48-1.89-.87Z"/><path class="cls-1" d="M32.3,263.6c.2,.43,.54,.79,.83,1.17,.26-.41,.51-.82,.77-1.23-.4-.21-.78-.45-1.21-.59-.06-.02-.46,.52-.4,.65Z"/><polygon class="cls-1" points="610.57 66.51 609.82 66.8 610.52 67.17 610.57 66.51"/><path class="cls-1" d="M571.2,126.79c-.43-.03-.86-.05-1.29-.08,.21,.15,.42,.3,.62,.46,.22-.13,.45-.25,.67-.38Z"/></g></g></svg>