<?xml version="1.0" encoding="UTF-8"?><svg id="Layer_2" xmlns="http://www.w3.org/2000/svg" xmlns:xlink="http://www.w3.org/1999/xlink" viewBox="0 0 705 290"><defs><style>.cls-1{fill:#ff8c1a;fill-rule:evenodd;}.cls-2{clip-path:url(#clippath);}.cls-3{fill:none;}</style><clipPath id="clippath"><rect class="cls-3" width="705" height="290"/></clipPath></defs><g id="Hero"><g class="cls-2"><g><path class="cls-1" d="M349.14,18.76c-1.5-1.13-4.17-.31-5.53,1.68-1.04,1.54-.69,3.94,.7,4.96,1.8,1.29,4.51,.81,5.7-1.03,1.03-1.54,.57-4.54-.88-5.6Z"/><path class="cls-1" d="M77.4,245.61c-.33-.19-.68-.33-1-.5-.78,1.27-1.57,2.54-2.35,3.8,.37,.27,.72,.59,1.14,.81,1.52,.79,3.1,.31,3.75-1.06,.57-1.16,.09-2.11-1.54-3.05Z"/><path class="cls-1" d="M544.35,83.55c-.75-.8-1.83-1-2.82-1.3-4.79-1.45-9.17-3.62-12.61-7.36-.46-.49-1.01-.89-1.56-1.25-3.57-2.55-7.12-5.05-11.6-5.87-2.38-.42-3.88-1.99-4.08-4.44-.18-2.28-.75-4.63,.75-6.73,.49-.64,1.05-1.48,.74-2.33-.44-1.23,.07-2.15,.79-3.23-1.75-.66-3.24-1.16-4.69-1.82-1.12-.46-2.18-.61-3.33-.46-1.83,.19-2.8-.39-3.47-2.07-.41-1.08-.69-2.22-.5-3.31,.61-3.67-.64-7.08-1.71-10.46-.7-2.19-.98-4.37-.61-6.57,.28-1.61,.1-3.19-.02-4.75-.22-2.93-2.15-5-4.95-5.45-1.56-.28-3.18-.49-4.77-.3-2.78,.31-5.43-.23-8.08-1.11-2.93-.92-5.49-2.67-8.37-3.54-2.68-.82-4.64-2.36-6.71-4.02-2.39-1.92-2.87-3.98-2.14-6.74,.64-2.49,1.62-4.93,1.88-7.54,.08-.98-.06-1.47-1.1-1.91-2.42-1.04-4.39-.53-6.18,1.14-3.24,3.03-7.81,4.24-11.03,7.34-.21,.18-.49,.32-.75,.37-3.36,.58-6.83,2.11-9.59-1.48-.5-.66-1.08-.64-1.67-.04-.59,.61-1.18,1.21-1.55,1.96-.27,.61-.67,.86-1.3,.78-2.27-.24-4.58-.76-5.96,1.71-2.67,.08-5.26,1.46-8.04,.11-1.82-.91-2.09-1.48-.9-3.05,1.03-1.36,.99-1.91-.37-3-.43-.34-.94-.62-1.46-.86-1.65-.85-2.89-1.96-3.89-3.58-1.86-2.97-4.28-5.26-8.17-5.38-1.09-.05-2.2-.34-3.35-.18-1.56,.2-3.02-.21-4.29-1.13-.91-.64-1.77-1.31-3-1.49-1.07-.14-1.47-1.04-.99-2.07-1.7-.63-3.71-.76-4.25-3.11-.19-.86-1.11-1-1.89-.63-.84,.4-1.62,.86-2.51,1.27-2.08,.91-4.33,1.61-6.55,.64-1.37-.62-2.27-.26-3.42,.29-2.39,1.23-4.74,2.66-7.49,.18-1.01-.9-1.7-.46-2.2,.97-.66,1.93-1,4.01-3.43,4.65-.27,.06-.57,.54-.62,.88-.32,2.23-3.07,3.32-2.77,5.81-2.42,1.29-1.86,3.27-1.66,5.54,.18,1.84,.12,3.55,1.14,5.26,2.32,3.87,3.6,8.16,5.06,12.36,.63,1.83,1.67,2.69,3.76,2.57,.68,0,1.37,0,1.9,.34,2.13,1.46,4.5,1.72,6.97,2.05,2.23,.31,2.21,.43,2.21,2.93-.01,.36-.11,.76,.31,.95,.43,.18,.79-.09,.87-.46,.41-2.01,1.9-2.01,3.49-1.81,1.51,.17,3.04,.69,4.51,.53,2.56-.23,4.82,.5,7.11,1.46,3.43,1.43,6.87,2.76,10.68,2.54,2.34-.12,4.31,1.16,5.72,2.7,1.41,1.55,2.9,2.66,4.67,3.63,1.68,.92,2.86,2.02,2.91,4.37,.06,1.94,1.26,3.95,3.08,5.2,1.46,.99,2.57,2.21,3.54,3.64,.69,.99,1.56,1.87,2.45,2.72,1.15,1.11,2.23,1.45,3.83,.94,2.62-.82,4.97-.06,6.94,2.01,2,2.13,4.22,4.04,6.54,5.87,1.75,1.34,2.38,2.9,.67,4.79-.98,1.1-1.92,2.26-2.85,3.41-3.92,4.73-5.62,10.41-5.09,16.36,.29,3.41,.69,6.79,.59,10.26-.08,3.28,1.39,6.05,4.14,7.9,3.24,2.29,3.98,5.43,3.48,8.91-.69,4.92-2.58,9.41-5.32,13.56-2.87,4.31-5.69,8.64-9.39,12.34-2.83,2.82-6.19,5.1-8.77,8.16-1.66,1.98-3.49,3.81-5.26,5.72-3.82,4.11-8.56,7.09-13,10.48-4.8,3.61-10.04,6.58-14.98,10.01-2.61,1.82-5.73,3.14-8.99,3.82-2.68,.54-4.87,1.91-6.88,3.59-2.7,2.27-5.36,4.57-7.22,7.67-1.12,1.83-2.55,3.43-4.28,4.73-.75,.55-1.46,1.2-1.53,2.29,.78,.57,1.55,.39,2.36,.06,1.49-.61,3.06-1.06,4.64-1.14,1.3-.05,2.34-.61,3.31-1.28,1.4-.97,2.75-1.94,4.08-2.98,.8-.64,1.66-1.35,2.68-1.46,3.1-.37,5.28-2.24,7.44-4.14,1.84-1.56,3.17-3.61,5.53-4.64,3.47-1.52,6.19-4.17,9.02-6.45,3.06-2.44,6.24-4.74,9.32-7.1,5.6-4.26,11.28-8.43,16.92-12.68,5.4-4.04,10.34-8.67,15.72-12.79,3.97-3.03,7.63-6.45,11.71-9.42,3.05-2.23,5.88-4.8,9.03-6.97,2.5-1.75,5.07-3.4,8.44-3.42,1.44-.01,3.05-.13,4.37-.87,4.29-2.29,7.13-5.71,7.45-10.69,.22-3.48,1.85-6.26,4.14-8.6,2.76-2.85,5.87-5.36,8.78-8.13,1.04-.98,2.16-1.04,3.34-.56,3.98,1.61,7.94,3.18,10.79,6.64,.74,.87,1.86,1.3,2.93,1.7,1.11,.41,1.63-.1,1.67-1.13,.06-1.47-.85-2.36-1.84-3.33-1.98-2-4.82-3.72-3.26-7.29,.09-.19-.05-.51-.15-.76-1.25-2.93-1.01-6.08-1.87-9.08-.56-1.99,.18-3.56,2.11-4.65,2.52-1.43,5.08-1.27,7.61-.26,2.18,.87,4.24,2.11,6.35,3.18,.52,.28,1.09,.6,1.25,1.14,.55,2.15,2.38,3.11,4.04,4.18,4.77,3.03,10.29,4.42,15.19,7.19,.07,.05,.18,.06,.26,.1,1.05,.26,1.91-.09,2.44-.96,.49-.81,.03-1.64-.57-2.3Z"/><path class="cls-1" d="M184.5,242.99c-4.45-.23-8.02,1.37-11.25,4.09-1.47,1.22-2.7,2.75-4.39,3.79-2.03,1.23-2.24,3.47-.98,6.01,.83,1.63,3.06,2.59,5.13,2.1,.9-.21,1.66-.81,2.66-.79,2.79,.04,5.35-.52,7.87-1.76,2.28-1.11,3.91-2.73,5.27-4.26,2.64-3.99,1.06-8.88-4.29-9.18Z"/><path class="cls-1" d="M331.25,204.69c-2.96,.51-6.37,.42-7.67,3.43-.46,.74-.64,1.06-.85,1.37-.85,1.24-1.25,2.62-.3,3.9,1.05,1.37,2.52,.79,3.92,.46,3.14-.75,5.12-2.94,6.85-5.34,1.19-1.65-.04-4.14-1.95-3.83Z"/><path class="cls-1" d="M355.54,132c.25-1.78,.09-3.52-1.54-4.87-1.26-1.13-2.72-1.76-4.23-2.29-2.03-.69-3.26,.14-3.6,2.24-.38,2.33,.86,4.95,3.08,6.32,.96,.7,2.11,1,3.41,.81,1.43-.19,2.69-.78,2.88-2.21Z"/><path class="cls-1" d="M309.38,216.7c.62-.64,1.11-1.37,.42-2.2-.67-.88-1.56-.19-2.32-.04-.23,.05-.51,.26-.66,.47-1.13,1.5-2.82,2.1-4.42,2.77-1.66,.71-2.41,2.03-3.01,3.46-.64,1.54,.15,3.45,1.39,3.83,1.28,.42,5.39-.92,6.09-2.09,.84-1.41,1.95-2.75,1.71-4.59-.11-.73,.14-1.28,.8-1.62Z"/><path class="cls-1" d="M251.52,235.87c-2.22,.32-3.28,1.98-4.61,3.61-.21,.43-.61,.98-.76,1.61-.4,1.41,.54,2.87,1.92,2.76,2.59-.16,5.03-.88,6.71-2.97,.83-1.07,1.27-2.36,.76-3.65-.48-1.2-2.24-1.57-4.02-1.36Z"/><path class="cls-1" d="M122.84,229.02c-2.05-1.2-4.25-1.01-6.17,.09-2.28,1.34-2.15,3.34,.17,4.71,2.02,1.41,4.09,1.33,6.08,.2,2.08-1.23,2.05-3.8-.08-5Z"/><path class="cls-1" d="M502.79,28.61c.68,.97,1.84,1.18,2.79,.83,2.57-.85,4.68-2.39,5.94-4.82,.81-1.51-.45-3.23-2.1-2.89-2.42,.5-4.7,1.32-6.14,3.52-.61,1.07-1.38,2.12-.49,3.36Z"/><path class="cls-1" d="M196.05,210.46c.71-1.14,.25-2.83-1.01-3.65-1.61-1.03-4.16-.58-4.98,.86-.6,1.04-.06,3.06,1,3.78,1.41,.95,4.12,.42,4.99-1Z"/><path class="cls-1" d="M124.08,239.74c-1.81-.74-3.5-.37-5.06,.58-1.16,.72-1.04,1.53,.21,2.3,1.53,.9,3.87,1.05,5.06,.25,.64-.42,1.23-.88,1.07-1.8-.13-.71-.68-1.08-1.27-1.34Z"/><path class="cls-1" d="M519.16,37.23c.05-.45-.23-.69-.62-.8-.44-.16-.91-.4-1.36-.36-2.37,.08-4.66-.45-6.99-.77-1.04-.14-2.06-.29-3.13,.76,3.67,2.57,7.61,1.48,11.37,1.86,.37,.04,.69-.26,.73-.69Z"/><path class="cls-1" d="M287.66,226.82c-.57-.48-1.04-.1-1.45,.28-.36,.39-.43,.87-.01,1.21,.49,.43,1.03,.22,1.45-.24,.29-.42,.43-.9,.02-1.25Z"/><path class="cls-1" d="M333.31,203.71c.25-.27,.47-.69,.13-.95-.66-.48-1.23-.09-1.65,.41-.22,.31-.17,.69,.11,.99,.64,.35,1.03-.02,1.41-.45Z"/><path class="cls-1" d="M370.05,21.57c-.41-.19-.91-.04-1.2,.37-.15,.21-.15,.5,.19,.7,.41,.07,.87,.31,1.22-.13,.26-.35,.16-.8-.21-.93Z"/><path class="cls-1" d="M355.69,24.01c-.14,.12-.37,.17-.43,.29-.15,.42-.47,.81-.08,1.27,.05,.04,.15,.07,.23,.05,.45-.23,.51-.7,.48-1.16,0-.14-.13-.29-.21-.45Z"/><path class="cls-1" d="M377.09,36.29c.03-.08,.1-.16,.09-.23,.01-.49-.14-.9-.55-1.21-.12-.07-.31,0-.47,0,.08,.35,.15,.7,.27,1.03,.09,.26,.32,.45,.66,.41Z"/><path class="cls-1" d="M322.03,206.32c-.31-.05-.54,.06-.66,.29-.21,.34-.16,.69,.26,.88,.3,.1,.56-.03,.68-.26,.18-.35,.09-.71-.28-.91Z"/><path class="cls-1" d="M518.89,52.25c-.11-.14-.2-.38-.32-.39-.27-.04-.55-.01-.78,.1-.19,.08-.14,.26,.07,.37,.34,.08,.74,.17,1.03-.08Z"/><path class="cls-1" d="M493.48,14.56c.27,.17,.53,.14,.73-.06,.19-.17,.31-.45,.06-.66-.22-.16-.49-.17-.7,.05-.19,.19-.29,.43-.1,.67Z"/><path class="cls-1" d="M534.66,17.1c.29,.17,.55,.19,.7-.12,.12-.26,.11-.56-.16-.76-.24-.19-.52-.24-.75-.04-.36,.38-.06,.65,.2,.92Z"/></g></g></g></svg>