<?xml version="1.0" encoding="UTF-8"?><svg id="Layer_2" xmlns="http://www.w3.org/2000/svg" xmlns:xlink="http://www.w3.org/1999/xlink" viewBox="0 0 469 661"><defs><style>.cls-1{fill:#ff8c1a;}.cls-2{clip-path:url(#clippath);}.cls-3{fill:none;}</style><clipPath id="clippath"><rect class="cls-3" width="469" height="661"/></clipPath></defs><g id="Hero"><g class="cls-2"><g><path class="cls-1" d="M196.33,331.32c5.59,3.75,9.31,.83,12.76-2.37,3.57-3.3,7.2-4.59,11.79-2.08,2.63,1.44,5.58,2.23,7.91-.58,.64-.78,1.01-2.42,.64-3.3-1.39-3.33-4.62-3.32-7.45-3.03-2.95,.3-5.1,.49-7.71-1.98-4.48-4.25-10.69-2.73-14.18,2.51-.99,1.49-2.18,2.86-3.08,4.02-2.77-1.1-4.75-2.56-6.72-2.54-4.02,.05-7.08-1.62-9.66-4.24-3.74-3.81-7.72-3.32-11.95-1.26-2.6,1.26-5.04,3.02-7.77,3.8-12.45,3.57-19.51,12.73-24.97,23.58-1.53,3.05-1.53,6.24,1.49,8.52,3.13,2.36,5.62,.36,7.47-1.95,2.86-3.59,6.12-3.44,9.69-1.64,1.93,.97,3.62,2.42,5.57,3.34,4.74,2.25,8.19,7.1,14,7.14,4.49,.02,8.53,.96,11.5,5.17,4.02-3.56,7.33-6.3,10.41-9.28,2.79-2.71,4.56-5.76,5.14-9.99,.76-5.52-.41-9.81-4.87-13.83Z"/><path class="cls-1" d="M-2.42,409.76c-3.11,3.61-5.58,7.83-7.98,11.99-1.81,3.13-.72,5.21,2.94,6.63,2.01,.78,4.61,.97,5.94,2.38,3.9,4.13,7.98,2.48,11.99,.94,2.88-1.11,5.3-2.96,8.84-1.96,2.73,.76,4.77-1.18,4.77-4.04,0-5.24-.4-10.48-.66-16.08-6.69-1.03-12.82-2.33-19.01-2.75-2.25-.15-5.35,1.17-6.83,2.88Z"/><path class="cls-1" d="M7.92,357.15c-6.68,5.12-7.13,12.78-8.06,20.12-.16,1.27,1.85,3.25,3.31,4.2,7.35,4.76,17.6,2.91,23.48-4.1,2-2.38,3.79-4.94,6.17-8.07-4.28-4.2-8.09-8.16-12.14-11.87-4.53-4.16-7.84-4.06-12.78-.27Z"/><path class="cls-1" d="M125.2,424.17c-1.02,1.07-1.93,2.18-2.98,3.12-10.6,9.54-10.02,16.46,2.08,24.17,5.5,3.5,10.39,2.71,14.4-2.32,5.47-6.86,2.77-18.23-5.31-21.96-2.59-1.2-5.37-1.99-8.19-3.01Z"/><path class="cls-1" d="M8.89,504.62c-.04-5.72-3.08-8.4-10.15-9.48-3.43,.9-7.2,1.18-10.21,2.84-6.74,3.72-6.85,11.89-.19,15.69,2.98,1.7,6.78,2.56,10.25,2.69,5.46,.2,10.34-5.81,10.3-11.74Z"/><path class="cls-1" d="M80.57,515.02c-.55,.03-1.29,.03-2,.13-9.02,1.29-15.4,14.46-10.84,22.35,1.62,2.8,4.38,3.52,7.45,1.55,5.98-3.84,9.62-9.45,11.25-16.28,.88-3.69-2.06-7.43-5.86-7.75Z"/><path class="cls-1" d="M369.13,329.52c-3.16-4.38-6.85-5.73-11.22-4.02-3.11,1.22-6.18,2.56-9.75,4.04,2.38,9.12,3.97,11.79,8.24,14.05,3.76,2,8.72,.87,11.78-2.68,2.88-3.35,3.28-8.15,.95-11.39Z"/><path class="cls-1" d="M377.55,75.33c-.47,4.7,2.23,7.3,6.75,7.43,5.33,.15,11.18-4.55,11.31-9.09,.17-5.96-4.57-11.8-9.5-11.64-5.85,.19-7.9,6.64-8.57,13.29Z"/><path class="cls-1" d="M418.46,417.87c-.12,3.69,4.32,7.62,8.93,7.91,4.96,.31,8.44-3.48,8.71-9.48,.23-5.02-2.72-10.11-5.99-10.36-5.12-.38-11.45,6.1-11.65,11.92Z"/><path class="cls-1" d="M379.19,517.3c2.29,1.71,4.8,3.3,7.45,4.31,4.06,1.54,7.56-.33,10.53-3.01,2.32-2.09,3.6-5.18,1.7-7.75-1.68-2.28-4.66-3.6-7.27-5.49-4.58,1.91-8.71,3.22-12.41,5.32-2.68,1.52-2.55,4.73-.01,6.62Z"/><path class="cls-1" d="M98.64,375.37c-4.21-.83-8.54-1.04-14.47-1.66-.48,.2-2.85,.59-4.25,1.97-1.35,1.32-2.62,3.92-2.19,5.48,.37,1.35,3.09,2.27,4.93,2.96,2.36,.88,4.98,1.1,7.3,2.05,4.38,1.79,11.95-2.71,11.55-7.31-.11-1.28-1.69-3.25-2.87-3.48Z"/><path class="cls-1" d="M30.9,457.53c-.32,3.63,3.96,9.44,7.22,9.82,3.86,.45,8.31-3.78,8.62-8.19,.25-3.53-3.72-7.77-7.72-8.26-3.82-.46-7.79,2.78-8.12,6.63Z"/><path class="cls-1" d="M292.63,403.55c-.24,3.5,1.07,6.22,4.33,7.64,2.65,1.16,6.01-.67,8.38-4.26,2.4-3.64,2.5-6.7,.09-9.3-2.11-2.28-4.76-3.67-7.8-2.29-3.38,1.53-4.92,4.5-5,8.2Z"/><path class="cls-1" d="M154.37,525.5c.07,3.75,1.97,5.54,5.97,5.6,5.03,.08,9.69-3.63,9.73-7.76,.03-3.59-3.62-6.94-7.75-7.12-4.44-.18-8.05,4.03-7.95,9.28Z"/><path class="cls-1" d="M249.52,323.22c1.81,2.63,2.7,3.77,3.43,5,2.94,5.04,7.21,5.46,10.37,.68,1.27-1.92,2.09-4.47,2.15-6.76,.05-1.9-.8-4.76-2.18-5.52-1.46-.81-4.28-.14-6.02,.79-2.71,1.46-5.01,3.69-7.75,5.81Z"/><path class="cls-1" d="M323.11,127.48c-.67,4.31,2.63,8.22,7.5,8.91,3.8,.54,6.8-1.63,7.25-5.23,.47-3.68-3.49-9.16-7.07-9.79-3.24-.57-7.13,2.53-7.68,6.11Z"/><path class="cls-1" d="M312.98,184.68c-.25,3.4,2.56,6.94,5.76,7.25,3.7,.36,7.31-3.04,7.64-7.2,.34-4.24-2.16-7.94-5.49-8.12-3.72-.2-7.59,3.74-7.91,8.07Z"/><path class="cls-1" d="M320.22,246.35c.62,5.69,4.95,7,10.8,8.95,.71-4.11,1.76-7.34,1.7-10.54-.07-3.91-3.87-6.46-7.58-5.83-3.71,.63-5.38,3.23-4.93,7.42Z"/><path class="cls-1" d="M246.28,483.08c-4.1-1.22-7,.3-7.85,3.83-.89,3.7,1.39,7.23,5.21,8.09,5.14,1.14,8.4-1.76,9.69-9.15-2.26-.9-4.6-2.04-7.05-2.76Z"/><path class="cls-1" d="M45.91,419.85c-.01,2.81,2.87,5.38,6.36,5.67,4.06,.34,7.43-2.22,7.69-5.83,.22-2.93-2.57-5.98-5.73-6.28-3.61-.34-8.3,3.29-8.32,6.44Z"/><path class="cls-1" d="M267.35,484.57c-.36,4.5,2.15,7.77,6.19,8.07,4.22,.31,6.75-1.26,7.04-4.39,.35-3.73-3.61-8.47-7.18-8.62-3.2-.13-5.81,2-6.05,4.93Z"/><path class="cls-1" d="M357.88,494.76c-.41,3.84,1.85,6.91,5.32,7.24,3.34,.32,6.45-2.37,6.92-5.98,.49-3.78-2.52-7.52-6.58-8.19-2.93-.48-5.16,2.26-5.65,6.93Z"/><path class="cls-1" d="M28.35,497.52c-3.12-.08-5.75,2.25-5.85,5.18-.11,3.27,2.96,7.24,5.71,7.38,3.05,.16,5.79-2.79,5.76-6.18-.04-3.51-2.5-6.3-5.62-6.38Z"/><path class="cls-1" d="M117.79,292.08c.1-3.88-1.61-5.38-4.15-5.05-3.46,.45-6.56,3.79-7.05,8.16-.16,1.46,.35,3.91,1.28,4.35,1.44,.68,4.28,.73,5.16-.22,2.21-2.37,3.64-5.46,4.75-7.24Z"/><path class="cls-1" d="M81.01,266.1c1.64,1.56,3.48,2.27,5.03,.73,1.16-1.15,2.14-3.32,1.91-4.83-.35-2.22-1.85-4.26-3.06-6.79-8.11,3.26-8.87,6.16-3.87,10.89Z"/><path class="cls-1" d="M67.76,399.38c2.57,1.51,4.76,.65,6.15-1.66,1.93-3.22,2.62-6.6-1.05-10.82-2.38,2.19-4.49,3.74-6.09,5.71-2.04,2.51-1.48,5.32,1,6.77Z"/><path class="cls-1" d="M298.92,315.54c4.2,3.11,7.28,.35,10.27-1.73,1.9-1.32,3.02-3.77,1.03-5.44-1.25-1.05-4.21-1.37-5.66-.6-2.84,1.5-5.31,3.89-5.65,7.78Z"/><path class="cls-1" d="M258.26,299.67c-.59,2.29,1.47,3.45,3.7,2.85,2.24-.6,2.98-2.55,2.09-4.53-1.04-2.33-2.6-4.42-4.25-7.15-4.89,2.91-.83,6.08-1.54,8.84Z"/><path class="cls-1" d="M404.14,303.42c1.75-.68,3.37-2.13,4.49-3.67,.28-.38-1.9-3.45-2.38-3.31-1.94,.56-3.66,1.89-6.64,3.62,2.34,1.8,3.84,3.63,4.53,3.36Z"/><path class="cls-1" d="M178.34,234.63c-.88-.17-2.08,1.36-3.14,2.14,.98,1.13,1.77,2.73,3,3.23,.77,.31,2.21-1.04,4.28-2.14-1.83-1.51-2.87-2.98-4.14-3.22Z"/><path class="cls-1" d="M209.14,430.49c.25,.9,1.44,1.54,2.22,2.29,.72-.76,2.17-1.74,2.02-2.23-.35-1.11-1.48-1.98-2.86-3.64-.73,1.74-1.6,2.81-1.38,3.59Z"/><path class="cls-1" d="M232.78,314.99c-.14,.22,1.35,1.91,1.49,1.83,1.11-.6,2.21-1.37,3-2.34,.2-.25-.72-1.41-1.44-2.74-1.33,1.35-2.36,2.19-3.05,3.26Z"/><path class="cls-1" d="M72.7,464.43c2.11,1.51,4.94,4.72,6.19,4.19,2.75-1.17,5.7-3.86,6.68-6.61,.86-2.41-.86-5.73-1.44-8.65-1.9,1.1-3.8,2.2-5.69,3.3-1.91,2.59-3.82,5.18-5.73,7.77Z"/><path class="cls-1" d="M317.95,491.61c-.99,.08-1.93,.84-2.89,1.31,.52,.88,.92,2.37,1.58,2.5,.82,.16,1.86-.81,3.31-1.54-.93-1.1-1.52-2.31-2.01-2.27Z"/><path class="cls-1" d="M27.8,334.94c.17-.29-.76-1.24-1.52-2.39-1.07,1.27-1.93,1.98-2.29,2.9-.12,.31,1.33,1.7,1.5,1.6,.9-.5,1.78-1.23,2.3-2.1Z"/><path class="cls-1" d="M366.86,388.72c.76,0,1.86-.73,2.14-1.41,.23-.55-.54-1.52-.87-2.3-.96,.41-1.92,.82-3.54,1.51,1.1,1.13,1.69,2.2,2.27,2.2Z"/><path class="cls-1" d="M291.55,303.29c-.1,.15,.82,1.42,1.11,1.37,.77-.15,1.45-.74,2.5-1.35-.85-.83-1.52-1.73-1.73-1.64-.74,.34-1.42,.96-1.89,1.63Z"/><path class="cls-1" d="M260.56,216.8c.12-1.22,.23-2.43,.35-3.65-.49-.05-.99-.09-1.48-.13-.05,1.23-.11,2.45-.16,3.67,.43,.04,.87,.07,1.3,.11Z"/><path class="cls-1" d="M386.92,191.61c1.51,.02,2.35,.28,2.68-.02,.39-.36,.33-1.21,.47-1.84-.75-.12-1.59-.5-2.2-.26-.44,.17-.55,1.16-.95,2.12Z"/><path class="cls-1" d="M270.37,375.85c.58,.26,1.14,.71,1.73,.74,.61,.03,1.25-.35,3.09-.94-2.48-.81-3.14-1.26-3.66-1.13-.47,.12-.78,.86-1.16,1.33Z"/><path class="cls-1" d="M380.4,230.66c.18,.36,1.48,.62,1.6,.45,.42-.61,.56-1.43,.96-2.63-1.23,.15-2.09,0-2.36,.34-.34,.42-.45,1.36-.2,1.84Z"/><path class="cls-1" d="M155.48,246.62c.1-.41-.59-1.02-1.09-1.77-.68,.74-1.43,1.19-1.48,1.72-.04,.42,.79,1.32,1.18,1.29,.52-.04,1.27-.71,1.39-1.23Z"/><path class="cls-1" d="M117.57,169.13c-.38,.19-.95,.3-1.1,.6-.13,.26,.22,.75,.36,1.14,.51-.27,1.01-.55,1.52-.82-.26-.31-.52-.61-.78-.92Z"/><path class="cls-1" d="M175.96,430.88c1.75-.48,3.58-.8,5.17-1.6,.28-.14-.49-2.33-.96-4.42-1.83,.82-3.68,1.32-4.99,2.44-.44,.38,.49,2.35,.79,3.59Z"/><path class="cls-1" d="M240.22,306.34c.46-.38,.95-.73,1.34-1.17,.05-.06-.47-.6-.87-1.1-.43,.47-.9,.86-1.17,1.37-.07,.14,.46,.6,.71,.91Z"/><path class="cls-1" d="M188.42,272.8c.39-.42,.64-.99,.94-1.5-.37-.17-.74-.35-1.33-.62-.23,.56-.51,1.09-.63,1.66-.02,.09,.93,.55,1.02,.46Z"/></g></g></g></svg>