<?xml version="1.0" encoding="UTF-8"?><svg id="Layer_2" xmlns="http://www.w3.org/2000/svg" viewBox="0 0 405.17 362.3"><defs><style>.cls-1{fill:#ff8c1a;}</style></defs><g id="Store"><g><path class="cls-1" d="M191.84,264.83c1.65,1.16,3.48,1.75,5.5,1.29,2.04-.47,4.06-1.09,6.1-1.56,1.39-.32,2.86-.79,4.07,.62,.16,2.71,.44,5.4-.55,8.11-.66,1.81,.3,3.15,2.27,3.54,4.71,.94,9.37,1.47,12.89-2.94,.39-.49,1.07-.73,1.54-1.17,2.46-2.26,2.83-4.73,1.21-7.82-.83-1.57-1.57-3.2-2.48-4.72-.88-1.46-1.93-2.82-2.95-4.28,3.29-.24,6.36-.78,9.39-.62,3.57,.19,6.69-.63,9.62-2.55,1.49-.97,3.04-1.85,4.56-2.76-.6,3.53,1.56,5.5,4.23,6.89,5.23,2.73,10.27,1.95,15.01-1.24q.04-2.39,2.14-5.1c-.47-2.72-1.93-5.01-3.6-7.21-1.24-1.63-2.91-2.52-4.9-2.87-4.29-.74-8.95,1.46-11.06,5.32-.69,1.26-1.2,2.63-1.79,3.95,.21-4.91-2.67-8.85-4.17-12.87,.58-1.68,1.03-3.05,1.53-4.41,.96-2.6-.8-3.67-2.92-3.64-1.37,.02-2.54,.47-3.32,1.67-.6,.93-1.18,1.88-1.92,3.07-3.71-1.76-6.41,1.07-9.39,1.62-1.02,1.66-.1,4.08-2.8,4.44-.37-1.23-.73-2.44-1.23-4.08,3.17-1,3.64-3.71,4.02-6.48,.06-.47,.07-1.05,.34-1.39,2.67-3.23,2.63-7.48,4.17-11.14,.98-2.31,.79-5.01,1.84-7.37-1.18-2.11,.04-3.97,.45-5.98,.45-2.23,.91-4.39,1.74-6.52,.84-2.16,.7-4.42,.36-6.7-.36-2.38-1.45-4.16-3.34-5.67-2.66-2.13-5.51-3.24-8.87-2.41-.53-.7-.84-1.29-1.3-1.71-1.54-1.39-3.12-1.06-3.8,.79-.33,.89-.46,1.84-.72,2.91-4.41,1.7-8.75,3.44-13.14,5.05-2.74,1.01-4.65,2.79-5.92,5.39-.92,1.88-2.01,3.67-2.96,5.53-1.32,2.59-2.7,5.17-2.96,8.15-.19,2.23-.44,4.45-.66,6.68,1.7,2.19,2.86,4.63,3.48,7.37,.42,1.89,1.12,3.71,1.69,5.56,.57,1.85,1.1,3.72,1.73,5.55,.6,1.77,.07,3.19-1.25,4.35-1.57,1.38-3.19,2.71-4.64,3.93-.12,2.37-.11,4.6-.37,6.8-.32,2.73,.36,5.12,1.91,7.33,.72,1.03,1.45,2.06,2.29,3.25-.64,.74-1.21,1.29-1.67,1.93-1.19,1.66-.99,3,.6,4.12Zm26.32-17.23s.6,.25,.59,.29c-.12,.39-.31,.76-.48,1.14-.21-.12-.43-.23-.77-.42,.21-.35,.4-.71,.66-1.01Zm-11.08,12.08c.23-.08,.55,.06,.83,.11-.17,.21-.34,.43-.51,.64-.28-.04-.56-.09-.84-.13,.17-.21,.3-.54,.52-.62Z"/><path class="cls-1" d="M91.71,332.43c2.61,1.9,5.29,3.72,7.86,5.67,2.11,1.61,4.41,2.71,7.01,3.14,7.24,1.2,14.46,1.7,21.61-.67,1.36-.45,2.93-.99,4.24-.71,2.13,.46,3.34-.34,4.57-1.82,4.23-5.11,8.47-10.2,12.79-15.22,3.21-3.72,4.97-7.91,4.71-12.87-.05-.97-.17-1.94-.15-2.91,.07-4.14-1.95-7.47-4.21-10.65-.71-1-1.9-1.78-3.03-2.33-2.61-1.28-5.29-2.45-8.01-3.49-3.85-1.49-7.76-1.87-11.9-1.05-4.2,.84-7.98,2.62-11.49,4.13q-9.37,4.44-16.45,10.72c-.12,.11-.25,.21-.37,.32-4.26,4.22-8.43,8.52-11.46,13.76-2.39,4.14-2,8.07,1.26,11.55,.87,.93,1.97,1.66,3.01,2.42Z"/><path class="cls-1" d="M125.75,20.37c.46,.14,.96,.14,1.43,.21,3.27,.49,3.93,1.12,3.94,4.27,0,2.25-.21,4.51-.33,6.77,1.08,2.48,2.16,4.98,3.42,7.9,.13,.02,.6,.18,1.07,.19,1.96,.03,3.42,.74,4.14,2.71,.61,1.65,1.92,2.41,3.59,2.93,2.46,.76,4.76,1.97,7.48,1.19,1.32-.38,2.47,.37,3.68,.89,.8,.34,2.16,.56,2.71,.12,2.13-1.68,4.59-1.24,6.85-1.4,.45-.46,.94-.75,1.11-1.16,.96-2.31,2.56-3.47,5.12-3.76,1.52-.17,2.94-1.18,4.49-1.86-.89-3.83-.58-7,2.78-9.27,1.22-.82,1.19-2.22,.47-3.5-1.52-2.67-.94-4.93,1.28-6.92,.2-.18,.22-.57,.43-1.17-.96-.43-1.96-.84-2.91-1.34-1.17-.61-1.58-1.71-1-2.85,.55-1.06,1.24-2.05,2.07-3.4-1.91,.02-3.32,.04-4.91,.06-.29-1.54-.54-2.88-.77-4.09-1.31-.39-2.33-.69-3.38-1,.45-1.03,.63-2.52,.41-3.48-1.07,.8-2.04,1.52-3.12,2.32-.82-.85-1.58-1.64-2.46-2.56-3.72,.62-7.34,.16-11.1-2.18-1.74,3.5-4.9,2.14-7.87,2.14-.94,3.17-3.52,4-5.75,4.35-1.19,1.76-1.79,3.49-3.01,4.28-2.06,1.34-3.39,2.75-3.6,5.32-.08,.92-1.15,1.86-1.94,2.6-.82,.76-1.81,.28-2.73-.07-.44-.17-.96-.33-1.4-.26-.41,.06-.99,.36-1.12,.7-.29,.76,.35,1.13,.97,1.32Z"/><path class="cls-1" d="M249.96,290.27c-2.17-.46-3.71-1.9-5.2-3.4-.8-.81-1.61-1.6-2.36-2.45-5.31-6.02-15.08-6.97-21.47-3.75-1.01,.51-2.04,.99-3.03,1.53-1.75,.96-3.52,1.56-5.57,1.01-.92-.24-1.93-.25-2.9-.23-4,.08-7.42,2.72-8.63,6.61-1.41,4.52-.78,6.54,3.35,9.52,1.11,.81,1.77,1.74,2.39,2.91,1.44,2.71,2.87,5.45,4.62,7.96,4.11,5.91,9.6,8.99,17.05,7.69,1.71-.3,3.48-.39,5.13,.16,.1,1.64,.18,3.07,.26,4.5,.08,1.51,.47,2.87,1.8,3.8,1.59,1.12,3.24,1.29,5.13,.39,.24-.74,.48-1.5,.73-2.25q1.7-5.07-1.74-8.83c2.6-2.13,5.26-4.19,7.79-6.39,2.98-2.59,5.1-5.87,6.66-9.45,1.66-3.82,.29-8.42-4.01-9.32Z"/><path class="cls-1" d="M305.08,245.47c-1.9,.19-3.77,.58-5.74,.88-.46-.94-.79-1.84-1.31-2.62-.83-1.25-2.25-1.59-3.37-.95-1.09,.62-1.64,2.04-1.11,3.37,.34,.86,.94,1.61,1.54,2.61-1.2,.84-2.49,1.55-3.53,2.52-3.73,3.44-7.47,6.9-5.25,12.85,.29,.77,.1,2.09-.41,2.72-1.81,2.22-3.32,4.84-5.62,5.59-2.25-.05-3.82-.17-5.38-.11-1.6,.06-3.19,.26-4.78,.48-.44,.06-.93,.36-1.24,.7-1.86,2.02-3.79,3.99-5.46,6.16-1.46,1.9-.45,4.38,1.94,4.83,1.23,.23,2.58,.11,3.82-.13,1.41-.27,2.77-.85,4.22-1.32,.51,.46,1.03,.84,1.44,1.32,1.11,1.27,2.58,1.45,4,1.03,2.48-.72,4.97-1.51,7.3-2.59,2.38-1.11,4.23-2.94,5.22-5.5,.39-1.02,.91-1.99,1.42-3.07,2.96,.14,4.69,2.7,7.14,3.09,2.79,.45,4.7,2.4,7.21,3.64,1.43-2.1,3.21-3.2,5.51-3.87,4.45-1.29,8.01-3.84,10.61-7.91,3.23-5.06,3.61-11.29-.3-15.7-4.65-5.25-10.41-8.74-17.87-8.01Z"/><path class="cls-1" d="M262.62,92.98c3.1,3.57,6.91,5.69,11.71,6.11,4.37,.38,8.27-1.16,12.25-2.48,.59-.19,1.1-.68,1.58-1.1,4.31-3.71,5.91-7.94,3.39-14.89-.98-2.71-2.49-5.26-4-7.74-.72-1.2-1.81-2.49-3.04-3-4.17-1.73-8.48-3.17-13.13-2.72-.95,.09-1.89,.38-3.48,.72-1.21,.91-3.13,1.93-4.5,3.44-5.71,6.37-4.45,14.2-1.38,20.89,.13,.29,.36,.53,.57,.78Z"/><path class="cls-1" d="M142.5,140.15c.04,1.89,.69,3.77,1.06,5.66,.1-.02,.21-.04,.31-.06,.28,.91,.29,2.15,.9,2.68,2.56,2.2,4.76,4.96,8.12,6.03,12.38,3.95,21.36-5.15,21.55-14.78,.08-4.31-1.62-7.85-3.77-11.31-.24-.39-.63-.76-1.03-.98-2.96-1.69-5.99-3.19-9.48-3.51-9.66-.89-17.89,6.6-17.66,16.28Z"/><path class="cls-1" d="M252.37,218.21c-.15,.82-1.01,1.63-1.74,2.2-.73,.59-1.7,.88-2.13,1.09-1.71,2.63-3.17,4.88-4.79,7.37,1.42,.78,2.75,1.16,3.58,2.03,1.61,1.69,3.35,1.64,5.32,1.08,2.94-.84,5.92-1.54,8.84-2.46,4.22-1.34,8.14-3.09,9.76-7.79,.63-1.81,1.49-3.57,2.45-5.23,.6-1.04,.85-2.08,.77-3.18-.09-1.4,.38-2.33,1.41-3.35,1.44-1.42,.94-3.54-.88-4.33-.81-.35-2.1-.61-2.74-.21-2.85,1.74-6.11,1.89-9.16,2.85-5.03,1.57-9.61,3.9-10.7,9.94Z"/><path class="cls-1" d="M258.99,280.73c-.05-.04-.11-.08-.16-.12,0,0-.04,.02-.06,.04l.22,.08Z"/><path class="cls-1" d="M262,276.36c-.28-1.62-1.35-2.54-2.89-2.88-.72-.16-1.49-.08-2.63-.13,.67-2.3,1.24-4.28,1.83-6.33-1.13-2.26-2.08-4.66-4.3-6.1-1.75,.19-3.35,.32-4.94,.54-3.08,.42-5.97,1.4-8.52,3.23-.64,.46-1.3,1.03-1.64,1.7-2.46,4.82-1.14,11.33,2.99,15.08,1.17,1.06,1.96,1.13,3.45,.28,3.2-1.83,6.39-3.68,9.88-5.69,.43,2.19,1.99,3.39,3.59,4.56,.53-.32,1.08-.62,1.58-.97,1.14-.79,1.84-1.83,1.59-3.28Z"/><path class="cls-1" d="M297.35,225.3c.52-.31,.92-.88,1.27-1.39,1.69-2.5,3.35-5.02,5.05-7.58,1.05,.22,1.82,.36,2.59,.54,2.5,.59,4.92-1.35,5.37-4.25,.29-1.89-.55-3.1-1.92-4.09-1.42-1.02-3.19-1.05-4.49,.03-.97,.81-1.76,1.85-2.81,2.99-1.21-.61-2.02-1.21-2.92-1.46-4.2-1.13-8.29-1.12-11.87,1.82-3.44,2.82-3.85,7.09-1.5,10.8,2.06,3.25,8,4.56,11.25,2.59Z"/><path class="cls-1" d="M147.81,269.48c3.06,.6,5.83-.03,7.76-2.64,2.2-2.98,3.42-6.25,1.76-9.92-2.21-4.91-9.09-7.43-14.02-5.21-6.12,2.44-6.84,9.99-3.13,14.03,2.13,2.32,4.78,3.16,7.63,3.73Z"/><path class="cls-1" d="M343.83,143.03c1.62-.11,2.96-.88,3.79-2.57,.76-1.57,2-2.9,2.96-4.37,.42-.64,.93-1.38,.98-2.1,.42-6.31-6.76-11.79-12.42-9.43-5.58,2.33-7.79,7.19-5.34,12.9,1.51,4.91,5.88,5.85,10.04,5.56Z"/><path class="cls-1" d="M101.95,64.21c3.4,.11,7.12-2.24,8.44-5.44,.67-1.62,1.13-3.33,1.72-5.09-1.38-1.92-2.36-3.39-3.46-4.76-.49-.61-1.13-1.21-1.83-1.52-4.94-2.2-11.63-1.52-13.31,6.37-.23,1.09-.47,2.18-.72,3.33,1.11,1.48,2.14,2.91,3.23,4.3,1.5,1.92,3.56,2.74,5.93,2.81Z"/><path class="cls-1" d="M387.85,157.72c2.68-.22,5.5-.54,7.02-3.46,.42-.81,1.33-1.38,2.06-2.01,2.12-1.84,2.16-4.19,1.56-6.64-.63-2.6-2.37-4.14-4.98-4.66-2.62-.53-5.12,.05-7.77,1.06-2.66,.82-4.41,2.87-5.13,5.67-1.53,6.02,2.88,10.39,7.23,10.04Z"/><path class="cls-1" d="M174.69,242.34c3.81,.91,7.34,.07,9-4.37,.67-1.79,1.42-3.55,2.24-5.57-.41-.94-.91-2.11-1.42-3.28-1.1-2.47-3.09-3.54-5.71-3.85-2.2-.26-4.16,.28-6.05,1.28-3.09,1.63-5.2,5.22-4.76,8.33,.54,3.87,3.02,6.57,6.7,7.45Z"/><path class="cls-1" d="M355.05,163.92c-3.52,2.51-5.03,7.29-3.25,10.67,1.31,2.48,3.5,3.84,6.29,3.86,1.57,.01,3.15-.48,4.32-.68,1.71-2.64,3.19-4.92,5.08-7.84-.06-1.66-.45-3.5-1.88-5.02-2.86-3.03-7.11-3.45-10.56-.99Z"/><path class="cls-1" d="M336.37,194.3c-3.71,1.41-5.05,5.14-3.37,8.72,.89,1.89,2.41,3.05,4.12,3.92,2.49,1.26,5.15,.14,6.34-2.46,.8-1.75,1.63-3.49,2.43-5.19-1.09-3.07-2.2-4.65-3.85-5.29-1.92-.74-3.85-.4-5.68,.29Z"/><path class="cls-1" d="M309.17,166.35c-.97,1.17-1.64,2.5-1.07,3.99,.67,1.78,.7,3.41-.22,5.09-.22,.39-.2,.94-.22,1.41-.13,3.02,3.34,5.35,6.05,4.07,2.28-1.08,3.34-2.8,2.95-5.49-.3-2.05-.8-3.98-.16-6.12,.52-1.75-.77-3.43-2.54-4.15-1.73-.7-3.59-.24-4.78,1.19Z"/><path class="cls-1" d="M138.77,248.53c2.31-.72,3.56-3.53,2.66-5.97-.77-2.09-3.33-3.24-5.63-2.54-2.58,.79-3.81,3.21-2.93,5.74,.86,2.45,3.29,3.59,5.9,2.78Z"/><path class="cls-1" d="M258.65,190.76c.82,1.46,1.41,3.3,3.52,3.45,2.21,.16,3.56-1.04,4.31-3.05,.11-.29,.33-.54,.47-.83,.83-1.71,.55-3.05-.85-4.22-1.81-1.5-4.86-1.39-6.57,.25-1.3,1.25-1.6,2.68-.88,4.39Z"/><path class="cls-1" d="M273.4,248.35c-.95-1.8-3.19-2.6-4.9-1.75-1.88,.94-2.91,3.23-2.15,4.77,.98,1.97,3.15,3.16,4.64,2.56,2.09-.85,3.36-3.78,2.41-5.58Z"/><path class="cls-1" d="M228.86,167.8c.67-1.19,.42-2.54-.61-3.46-1.24-1.1-2.76-1.25-4.46-.44-1.53,.73-2.18,1.82-2.06,3.43,.11,1.48,1.01,2.52,2.63,3.04,1.54,.49,2.51,.13,3.68-1.4,.29-.38,.59-.76,.82-1.18Z"/><path class="cls-1" d="M332.32,26.14c1.09-.86,2.21-1.74,3.25-2.56,.01-3.38-.64-4.52-2.7-4.84-2.05-.32-3.74,.83-4.19,3-.15,.74-.22,1.69,.11,2.31,.69,1.32,1.82,2.22,3.53,2.08Z"/><path class="cls-1" d="M343,151.65c.63-.69,1.11-1.51,1.83-2.5-.65-.92-1.11-1.97-1.91-2.6-.68-.53-1.75-.77-2.65-.79-1.49-.04-2.8,1.11-3.16,2.44-.45,1.67,.18,3.26,1.63,4.1,1.52,.89,3.05,.69,4.27-.65Z"/><path class="cls-1" d="M174.16,281.02c.37,.6,1.15,1.3,1.78,1.32,1.08,.05,2.19-.39,2.69-.5,.99-.49,1.43-.69,1.86-.92,.29-.15,.57-.31,.83-.5,.99-.71,1.35-1.94,.89-2.99-.46-1.04-1.7-1.81-2.75-1.55-2.1,.51-3.89,1.61-5.18,3.34-.32,.42-.39,1.37-.13,1.8Z"/><path class="cls-1" d="M282.43,190.7c1.05-.59,1.97-1.61,2.64-2.63,.63-.97,.54-2.15-.4-3.09-1.18-1.18-2.66-1.53-3.94-.9-1.43,.71-2.21,2.05-2.29,3.96-.09,2.05,2.19,3.68,3.98,2.67Z"/><path class="cls-1" d="M351.55,219.22c-1.77,.42-2.76,1.65-2.98,3.82-.22,2.19,1.94,3.87,4.44,3.09,.21-.21,.75-.58,1.05-1.09,.4-.68,.58-1.48,.9-2.2,.99-2.19-1.31-4.12-3.41-3.62Z"/><path class="cls-1" d="M307.79,223.01c.67-1.53-.1-2.92-1.73-3.35-1.52-.41-2.92-.15-4.01,1-.98,1.04-.99,2.43-.58,3.65,.6,1.77,2.09,2.29,4.4,2.15,.68-1.21,1.41-2.28,1.91-3.44Z"/><path class="cls-1" d="M284.01,251.68c1.11-.61,2.16-1.32,3.23-1.98-.81-.88-1.6-1.85-2.51-2.69-1.32-1.22-3.09-1.22-4.38-.1-1.16,1-1.44,2.75-.63,3.93,.91,1.33,2.71,1.71,4.29,.83Z"/><path class="cls-1" d="M381.13,203.89c.65,1.26,2.89,1.79,4.23,1,1.54-.9,2.24-3.69,1.28-5.07-.72-1.03-2.61-1.27-3.96-.5-1.59,.91-2.32,3.07-1.54,4.57Z"/><path class="cls-1" d="M346.12,171.89c1.9-.9,3.07-3.36,2.24-4.68-1.02-1.62-2.94-2.15-4.58-1.28-1.5,.8-2.35,2.81-1.7,4.03,.67,1.27,3.04,2.4,4.04,1.93Z"/><path class="cls-1" d="M236.4,202.8c-1.07,.86-1.49,2.52-.85,4.31,.49,.28,1.24,1.04,2.04,1.1,.82,.07,1.9-.33,2.5-.9,.64-.61,.98-1.63,1.18-2.53,.11-.51-.14-1.3-.52-1.68-1.22-1.2-3.16-1.27-4.35-.3Z"/><path class="cls-1" d="M321.57,154.98c-.95,.88-1.14,2.07-.57,3.49,.63,1.56,1.58,2.46,2.64,2.41,1.33-.07,1.81-1.11,2.27-2.13,.2-.43,.48-.83,.64-1.27,.38-1.07-.06-2.22-1.06-2.89-1.22-.81-2.81-.66-3.93,.38Z"/><path class="cls-1" d="M374.93,166.78c.65-.81,1.26-1.53,1.84-2.29,.19-.25,.46-.57,.43-.84-.05-.6-.07-1.38-.44-1.74-1.64-1.64-4.66-1.31-5.91,.55-.95,1.41-.42,3.45,1.18,4.02,.87,.3,1.88,.21,2.9,.3Z"/><path class="cls-1" d="M327.22,164.57c.51,1.24,2.01,1.99,3.13,1.56,1.7-.64,2.89-2.92,2.19-4.22-.63-1.19-2.35-1.8-3.76-1.35-1.49,.48-2.23,2.38-1.55,4.01Z"/><path class="cls-1" d="M179.81,269.26c1.66-.42,2.84-2.67,2.17-4.12-.57-1.26-2.24-1.76-3.69-1.12-1.41,.62-2.05,2.13-1.53,3.54,.46,1.22,1.86,2,3.05,1.7Z"/><path class="cls-1" d="M345.3,223.61c-1.15-.14-2.46,1.13-2.73,2.32-.24,1.06,.22,1.92,1.05,2.5,.61,.42,1.36,.65,2.17,1.01,.74-.93,1.48-1.59,1.86-2.42,.29-.64,.46-1.77,.1-2.19-.56-.65-1.57-1.11-2.45-1.22Z"/><path class="cls-1" d="M157.74,268.25c-1.11,.41-1.62,2.36-.99,3.77,.52,1.15,2.15,1.73,3.25,1.16,1.38-.71,2.05-2.94,1.24-4.13-.59-.86-2.29-1.25-3.5-.81Z"/><path class="cls-1" d="M335,213.73c-1.64-.1-2.79,1.14-2.49,2.69,.18,.93,.49,1.84,.75,2.76,0,0-.02,0-.04,.01,.05,.15,.04,.37,.15,.45,.47,.36,1,.97,1.47,.93,.46-.04,1.13-.68,1.25-1.16,.32-1.37,.53-2.81,.53-4.21,0-.81-.71-1.41-1.61-1.46Z"/><path class="cls-1" d="M293.25,201.45c-.9,.8-1.28,1.83-.89,2.99,.51,1.52,1.48,2.41,3.44,1.91,.54-.96,1.2-2.02,1.73-3.14,.39-.82-.25-1.89-1.19-2.26-1.13-.44-2.18-.31-3.09,.5Z"/><path class="cls-1" d="M3.95,226.77c1.12-.73,1.61-2.82,.93-3.9-.64-1.01-2.24-1.34-3.49-.72-1.2,.6-1.73,2.12-1.15,3.31,.64,1.33,2.62,2.02,3.71,1.3Z"/><path class="cls-1" d="M373.14,145.37c.35-.4,1.13-1.01,1.51-1.82,.29-.61,.29-1.57,0-2.17-.45-.91-1.45-1.18-2.47-.96-1.38,.3-2.4,1.79-2.24,3.21,.14,1.27,1.66,2.3,3.22,1.74Z"/><path class="cls-1" d="M110.24,222.28c1.06-.55,1.85-2.5,1.54-3.78-.27-1.09-1.97-1.68-3.27-1.14-1.38,.58-2.05,2.2-1.49,3.61,.48,1.21,2.12,1.88,3.22,1.31Z"/><path class="cls-1" d="M138.21,197.51c1.11,.28,1.89-.18,2.32-1.2,.31-.73,.56-1.48,.86-2.29-1.38-1.58-2.57-1.75-3.84-1.01-.92,.53-1.28,1.46-1.16,2.48,.13,1.05,.76,1.75,1.81,2.01Z"/><path class="cls-1" d="M66.62,221.78c.89-.4,1.35-1.47,1.01-2.38-.57-1.55-2.29-2.24-3.92-1.56-1.05,.43-1.65,1.82-1.19,2.74,.69,1.41,2.47,1.92,4.1,1.2Z"/><path class="cls-1" d="M109.65,357.39c-1.18,.66-1.61,2.08-1,3.29,.64,1.28,2.08,1.95,3.14,1.45,1.16-.54,1.85-2.84,1.27-4.21-.4-.96-2.17-1.23-3.41-.53Z"/><path class="cls-1" d="M256.28,281.62c-1.26,.93-2.58,2-2.23,3.9,.04,.24,.43,.53,.7,.58,1.42,.27,3.58-.88,4.44-2.27,.7-1.13-.13-2.06-.38-3.06-.87,.24-1.84,.35-2.53,.85Z"/><path class="cls-1" d="M258.98,280.72l-.21-.08s.02,.09,.04,.13c.06-.02,.12-.03,.18-.05Z"/><path class="cls-1" d="M276.75,217.22c.41,.98,1.77,1.57,2.83,1.23,1.23-.4,1.93-1.87,1.48-3.12-.38-1.05-1.73-1.65-2.77-1.23-1.25,.51-2,2.03-1.54,3.12Z"/><path class="cls-1" d="M290,167.56c1.33-.79,2.07-2.67,1.43-3.65-.58-.89-1.98-1.21-3.01-.69-1.24,.62-1.77,2.02-1.22,3.24,.48,1.08,1.89,1.63,2.81,1.1Z"/><path class="cls-1" d="M280.24,287.42c-1.16,.45-1.84,2.02-1.39,3.19,.4,1.04,1.65,1.67,2.74,1.37,1.43-.39,2.19-2.11,1.53-3.46-.47-.96-1.86-1.49-2.88-1.1Z"/><path class="cls-1" d="M242.24,79.56c.65-.91,.56-2.14-.24-2.56-1.53-.81-3.12-1.48-5.37-1.16,.97,1.89,2.11,3.19,3.51,4.21,.71,.52,1.54,.29,2.1-.49Z"/><path class="cls-1" d="M165.31,120.56c.55,.07,1.3-.05,1.67-.4,.4-.38,.56-1.11,.65-1.71,.29-2.02-.57-3.6-1.82-5.01-2.66,1.08-2.66,1.29-.09,3.32-.45,1.06-.9,1.88-1.11,2.75-.07,.29,.41,1.01,.7,1.05Z"/><path class="cls-1" d="M327.8,206.6c-.59-.83-1.95-1.05-3.03-.49-1.24,.64-1.71,2.03-1.09,3.21,.53,1.01,1.94,1.48,2.84,.94,1.22-.74,1.93-2.75,1.28-3.66Z"/><path class="cls-1" d="M298.06,191.02c1.09-.16,1.74-2.15,1.29-3.2-.33-.76-1.65-1.2-2.52-.83-1.05,.44-1.53,1.73-.86,3.25,.49,.2,1.34,.89,2.08,.79Z"/><path class="cls-1" d="M225.97,226.94c-1.08,.61-1.47,2.15-.84,3.31,.56,1.03,1.79,1.44,2.84,.95,1.21-.57,1.57-1.99,.82-3.22-.67-1.09-1.91-1.55-2.82-1.04Z"/><path class="cls-1" d="M189.93,225.7c-.38-.85-1.55-1.33-2.41-1-1.17,.45-1.73,2.05-.93,3.58,.6,.08,1.54,.48,2.28,.24,1.05-.34,1.48-1.89,1.06-2.82Z"/><path class="cls-1" d="M401.98,223.78c-1.05,.62-1.39,1.81-.81,2.88,.47,.86,1.71,1.28,2.45,.82,1.23-.75,1.91-2.36,1.35-3.19-.6-.89-1.94-1.12-2.99-.5Z"/><path class="cls-1" d="M305.47,173.98c1.05-.41,1.65-1.74,1.21-2.7-.42-.92-1.87-1.4-2.84-.94-.97,.46-1.37,1.83-.8,2.81,.48,.84,1.5,1.19,2.43,.83Z"/><path class="cls-1" d="M330.51,233.47c-1.16,.52-1.61,1.68-.87,3.18,.54,.13,1.48,.69,2.17,.47,1.22-.38,1.86-2.33,1.33-3.18-.4-.64-1.73-.88-2.64-.47Z"/><path class="cls-1" d="M335.03,224.03c-.98,.42-1.46,1.42-1.14,2.33,.34,.95,1.39,1.51,2.31,1.22,1.04-.33,1.67-1.7,1.27-2.73-.34-.86-1.46-1.24-2.44-.82Z"/><path class="cls-1" d="M126.96,259.88c.55,.13,1.41,.57,2.17,.44,1.1-.19,1.64-1.64,1.21-2.62-.37-.84-1.46-1.24-2.38-.87-1.11,.45-1.66,1.67-1,3.05Z"/><path class="cls-1" d="M212.46,171.64c1.02-.18,1.58-1.3,1.39-2.21-.2-.93-1.46-1.49-2.31-.83-.64,.5-.95,1.41-1.68,2.55,1.2,.25,1.94,.62,2.6,.5Z"/><path class="cls-1" d="M209.48,312.6c-.91,.48-1.24,1.47-.64,2.73,.44,.12,1.17,.57,1.78,.44,1.05-.23,1.53-1.82,.93-2.72-.5-.74-1.26-.87-2.06-.45Z"/><path class="cls-1" d="M186.83,209.39c-.12-.87-.96-1.34-1.75-.96-.54,.26-.85,1.01-1.6,1.98,1.22,.24,1.95,.58,2.55,.42,.39-.1,.87-.98,.8-1.44Z"/><path class="cls-1" d="M184.75,19.07c.46-.21,.93-.89,.97-1.39,.07-.87-1.14-1.36-2.57-.91-.15,.28-.61,.79-.63,1.31-.03,.83,1.27,1.45,2.24,.99Z"/><path class="cls-1" d="M168.53,97.68c-.27,1.06-.62,1.77-.58,2.45,.05,.71,1.25,1.09,1.96,.77,.97-.44,1.55-1.69,.91-2.31-.47-.46-1.31-.55-2.3-.92Z"/><path class="cls-1" d="M96.18,346.23c.31-1.06,.72-1.87,.73-2.68,0-.64-1.29-.82-2-.34-.9,.61-1.28,1.8-.64,2.37,.38,.34,1.05,.37,1.91,.65Z"/><path class="cls-1" d="M374.77,186.3c.11-.86-.51-1.43-1.41-1.42-1.21,.01-1.55,.79-1.43,2.1,.51,.12,1.11,.44,1.62,.33,.48-.1,1.17-.62,1.23-1.02Z"/><path class="cls-1" d="M319.79,209.73c.35-.06,.76-.94,.77-1.46,.01-.85-1-1.53-1.65-1.12-.56,.35-.89,1.06-1.63,2,1.16,.3,1.87,.68,2.5,.58Z"/><path class="cls-1" d="M197.09,153.87c-.07-.95-1.54-1.85-2-1.33-.44,.5-.53,1.3-.89,2.3,.95,.27,1.64,.66,2.23,.55,.32-.06,.7-1.01,.66-1.52Z"/><path class="cls-1" d="M178.18,123.58c.36,.35,1.29,.66,1.55,.45,.48-.38,.67-1.14,1.16-2.1-1.02-.15-1.62-.38-2.15-.27-.7,.14-1.09,1.42-.56,1.92Z"/><path class="cls-1" d="M385.54,125.54c.89-.01,1.63-1.43,1.09-2.1-.3-.38-1.19-.73-1.54-.55-.55,.29-.87,1.03-1.53,1.88,.92,.38,1.45,.77,1.97,.77Z"/><path class="cls-1" d="M283.96,179c-.08-.67-.73-1.17-1.39-.77-.42,.26-.81,.98-.76,1.45,.04,.41,.73,.74,1.47,1.41,.36-1.02,.74-1.58,.68-2.09Z"/><path class="cls-1" d="M318.25,182.82c.42-.15,.64-.86,1.18-1.68-.94-.19-1.62-.54-1.97-.33-.39,.23-.47,.97-.69,1.48,.5,.2,1.1,.67,1.47,.53Z"/><path class="cls-1" d="M379.71,208.48c.85,.21,1.46,.5,1.59,.36,.47-.52,.84-1.16,1.1-1.81,.04-.11-.87-.75-.89-.72-.56,.59-1.06,1.25-1.8,2.18Z"/><path class="cls-1" d="M282.8,165.76c.27-.18,.48-1.03,.33-1.18-.46-.46-1.12-.74-2-1.27-.1,.89-.3,1.38-.15,1.7,.35,.73,.96,1.33,1.82,.75Z"/><path class="cls-1" d="M353.86,77.84c.15,.36,.19,.52,.28,.63,.51,.64,1.14,1.11,1.94,.65,.27-.15,.5-.84,.38-1.1-.39-.8-1.16-.84-1.94-.61-.13,.04-.25,.15-.65,.41Z"/><path class="cls-1" d="M184.68,299.39c-.33,.64-.5,1.36-.79,2.28,.8,.04,1.38,.24,1.63,.04,.64-.51,1.06-1.29,.39-2.04-.24-.27-1.17-.38-1.23-.28Z"/><path class="cls-1" d="M339.41,275.13c.7,.42,1.69,.02,1.75-.74,.02-.27-.5-.85-.74-.83-.49,.03-.97,.37-1.46,.58,.22,.5,.26,.87,.45,.99Z"/><path class="cls-1" d="M295.58,56.07c-.2-.33-.73-.63-1.1-.61-.26,.01-.75,.79-.68,.87,.33,.42,.81,.72,1.51,1.28,.16-.81,.42-1.31,.27-1.55Z"/><path class="cls-1" d="M114.02,193.26c.04-.29-.4-.65-.78-1.19-.36,.61-.73,.97-.73,1.34,0,.28,.48,.56,.74,.84,.27-.33,.72-.63,.77-.99Z"/><path class="cls-1" d="M173.29,82.39c-.32,.22-.55,.56-.81,.86,.3,.23,.61,.45,1.13,.84,.16-.6,.34-.96,.31-1.3-.01-.16-.54-.46-.63-.4Z"/><path class="cls-1" d="M182.94,246.09c-.31,0-.76-.13-.9,.03-.25,.27-.3,.72-.44,1.09l1.05,.15c.1-.41,.19-.84,.29-1.27Z"/><path class="cls-1" d="M324.28,230.94c.03,.27,.53,.48,1.77,1.51-.15-1.07-.1-1.57-.3-1.93-.16-.28-.62-.4-.95-.59-.19,.34-.56,.7-.52,1.01Z"/><path class="cls-1" d="M151.56,181.16c0-.38,.03-.75-.04-1.1-.01-.05-.68-.1-.74,0-.16,.31-.17,.7-.24,1.07,.28,0,.56,.01,1.01,.02Z"/><path class="cls-1" d="M374.23,128.88c-.17-.15-.39-.25-.6-.36-.04,.23-.07,.47-.11,.7,.22,.02,.44,.05,.65,.03,.03,0,.11-.32,.05-.37Z"/><polygon class="cls-1" points="154.21 328.65 154.49 328.38 154.1 328.36 154.21 328.65"/><path class="cls-1" d="M160.13,294.14c.2-.07,.39-.14,.59-.21-.12-.03-.24-.06-.37-.08-.08,.1-.15,.2-.23,.3Z"/></g></g></svg>