<?xml version="1.0" encoding="UTF-8"?><svg id="Layer_2" xmlns="http://www.w3.org/2000/svg" xmlns:xlink="http://www.w3.org/1999/xlink" viewBox="0 0 507 889"><defs><style>.cls-1{fill:#ff8c1a;}.cls-2{clip-path:url(#clippath);}.cls-3{fill:none;}</style><clipPath id="clippath"><rect class="cls-3" width="507" height="889"/></clipPath></defs><g id="BIO"><g class="cls-2"><g><path class="cls-1" d="M229.12,629.29c2.89-2.52,5.73-3.33,9.22-1.63,.86,.42,1.78,.75,2.71,.99,4.49,1.16,9.56-.54,11.53-3.84,2.29-3.83,1.69-7.96-2.03-11.73-1.67-1.69-3.52-3.44-5.64-4.41-6.72-3.09-15.77-11.8-21.17-6-6.94,7.45-13.85,30.16,.91,29.25,2.6-.16,2.55-.95,4.47-2.63Z"/><path class="cls-1" d="M248.42,668.08c-2.87-.16-6.54-2.07-8.62-.09-3.52,3.34-4.23,11.27-.65,14.54,1.58,1.44,4.38-.23,6.34-.95,3.83-1.41,6.38-4.22,7.05-8.38,.55-3.39-.67-4.93-4.13-5.12Z"/><path class="cls-1" d="M522.33,565.32c5.59,3.75,9.31,.83,12.76-2.37,3.57-3.3,7.2-4.59,11.79-2.08,2.63,1.44,5.58,2.23,7.91-.58,.64-.78,1.01-2.42,.64-3.3-1.39-3.33-4.62-3.32-7.45-3.03-2.95,.3-5.1,.49-7.71-1.98-4.48-4.25-10.69-2.73-14.18,2.51-.99,1.49-2.18,2.86-3.08,4.02-2.77-1.1-4.75-2.56-6.72-2.54-4.02,.05-7.08-1.62-9.66-4.24-3.74-3.81-7.72-3.32-11.95-1.26-2.6,1.26-5.04,3.02-7.77,3.8-12.45,3.57-19.51,12.73-24.97,23.58-1.53,3.05-1.53,6.24,1.49,8.52,3.13,2.36,5.62,.36,7.47-1.95,2.86-3.59,6.12-3.44,9.69-1.64,1.93,.97,3.62,2.42,5.57,3.34,4.74,2.25,8.19,7.1,14,7.14,4.49,.02,8.53,.96,11.5,5.17,4.02-3.56,7.33-6.3,10.41-9.28,2.79-2.71,4.56-5.76,5.14-9.99,.76-5.52-.41-9.81-4.87-13.83Z"/><path class="cls-1" d="M279.15,672.37c4.36,3.59,9.3,1.03,13.89,.4,3.29-.45,6.68-1.56,9.55-3.2,2.82-1.62,5.49-3.96,7.43-6.57,2.5-3.37,1.56-10.47-1.42-12.7-4.78-3.57-9.77-6.86-14.75-10.16-2.98-1.98-6.27-2.4-9.68-1.14-5.61,2.08-11.39,10.16-11.67,16.28-.26,5.84,2.56,13.72,6.66,17.09Z"/><path class="cls-1" d="M323.58,643.76c-3.11,3.61-5.58,7.83-7.98,11.99-1.81,3.13-.72,5.21,2.94,6.63,2.01,.78,4.61,.97,5.94,2.38,3.9,4.13,7.98,2.48,11.99,.94,2.88-1.11,5.3-2.96,8.84-1.96,2.73,.76,4.77-1.18,4.77-4.04,0-5.24-.4-10.48-.66-16.08-6.69-1.03-12.82-2.33-19.01-2.75-2.25-.15-5.35,1.17-6.83,2.88Z"/><path class="cls-1" d="M333.92,591.15c-6.68,5.12-7.13,12.78-8.06,20.12-.16,1.27,1.85,3.25,3.31,4.2,7.35,4.76,17.6,2.91,23.48-4.1,2-2.38,3.79-4.94,6.17-8.07-4.28-4.2-8.09-8.16-12.14-11.87-4.53-4.16-7.84-4.06-12.78-.27Z"/><path class="cls-1" d="M451.2,658.17c-1.02,1.07-1.93,2.18-2.98,3.12-10.6,9.54-10.02,16.46,2.08,24.17,5.5,3.5,10.39,2.71,14.4-2.32,5.47-6.86,2.77-18.23-5.31-21.96-2.59-1.2-5.37-1.99-8.19-3.01Z"/><path class="cls-1" d="M334.89,738.62c-.04-5.72-3.08-8.4-10.15-9.48-3.43,.9-7.2,1.18-10.21,2.84-6.74,3.72-6.85,11.89-.19,15.69,2.98,1.7,6.78,2.56,10.25,2.69,5.46,.2,10.34-5.81,10.3-11.74Z"/><path class="cls-1" d="M406.57,749.02c-.55,.03-1.29,.03-2,.13-9.02,1.29-15.4,14.46-10.84,22.35,1.62,2.8,4.38,3.52,7.45,1.55,5.98-3.84,9.62-9.45,11.25-16.28,.88-3.69-2.06-7.43-5.86-7.75Z"/><path class="cls-1" d="M424.64,609.37c-4.21-.83-8.54-1.04-14.47-1.66-.48,.2-2.85,.59-4.25,1.97-1.35,1.32-2.62,3.92-2.19,5.48,.37,1.35,3.09,2.27,4.93,2.96,2.36,.88,4.98,1.1,7.3,2.05,4.38,1.79,11.95-2.71,11.55-7.31-.11-1.28-1.69-3.25-2.87-3.48Z"/><path class="cls-1" d="M317.48,710.26c.41-4.77-2.43-8.56-6.54-8.75-4.65-.21-9.99,3.56-10.37,7.33-.41,4.15,4.06,9.34,8.2,9.53,4.13,.19,8.33-3.72,8.71-8.11Z"/><path class="cls-1" d="M356.9,691.53c-.32,3.63,3.96,9.44,7.22,9.82,3.86,.45,8.31-3.78,8.62-8.19,.25-3.53-3.72-7.77-7.72-8.26-3.82-.46-7.79,2.78-8.12,6.63Z"/><path class="cls-1" d="M480.37,759.5c.07,3.75,1.97,5.54,5.97,5.6,5.03,.08,9.69-3.63,9.73-7.76,.03-3.59-3.62-6.94-7.75-7.12-4.44-.18-8.05,4.03-7.95,9.28Z"/><path class="cls-1" d="M371.91,653.85c-.01,2.81,2.87,5.38,6.36,5.67,4.06,.34,7.43-2.22,7.69-5.83,.22-2.93-2.57-5.98-5.73-6.28-3.61-.34-8.3,3.29-8.32,6.44Z"/><path class="cls-1" d="M354.35,731.52c-3.12-.08-5.75,2.25-5.85,5.18-.11,3.27,2.96,7.24,5.71,7.38,3.05,.16,5.79-2.79,5.76-6.18-.04-3.51-2.5-6.3-5.62-6.38Z"/><path class="cls-1" d="M443.79,526.08c.1-3.88-1.61-5.38-4.15-5.05-3.46,.45-6.56,3.79-7.05,8.16-.16,1.46,.35,3.91,1.28,4.35,1.44,.68,4.28,.73,5.16-.22,2.21-2.37,3.64-5.46,4.75-7.24Z"/><path class="cls-1" d="M407.01,500.1c1.64,1.56,3.48,2.27,5.03,.73,1.16-1.15,2.14-3.32,1.91-4.83-.35-2.22-1.85-4.26-3.06-6.79-8.11,3.26-8.87,6.16-3.87,10.89Z"/><path class="cls-1" d="M393.76,633.38c2.57,1.51,4.76,.65,6.15-1.66,1.93-3.22,2.62-6.6-1.05-10.82-2.38,2.19-4.49,3.74-6.09,5.71-2.04,2.51-1.48,5.32,1,6.77Z"/><path class="cls-1" d="M303.95,590.89c-.29-1.68-1.97-3.11-2.63-4.06-4.13,.06-6.72,2.31-6.59,4.8,.14,2.53,1.66,3.93,4.14,4.12,2.59,.21,5.53-2.31,5.08-4.86Z"/><path class="cls-1" d="M298.24,629.22c-.15-1.25-1.56-3.1-2.68-3.35-2.78-.61-6.64,3.33-6.55,7.37,.8,.53,2.11,2.07,3.57,2.22,2.6,.27,5.99-3.49,5.67-6.25Z"/><path class="cls-1" d="M295.16,739.61c-5.55-.76-8.42,.76-9.46,4.7-.3,1.12,.09,3.15,.87,3.65,.87,.55,3.16,.3,3.75-.45,1.82-2.29,3.12-5,4.83-7.9Z"/><path class="cls-1" d="M309.08,762.42c-1.78,1.47-3.68,2.82-5.32,4.44-1.53,1.52-2.07,3.73,.17,4.7,1.25,.54,4.08-.15,4.75-1.21,1.27-2.02,1.5-4.7,2.16-7.1-.59-.28-1.17-.55-1.76-.83Z"/><path class="cls-1" d="M288.43,766.7c-.07-.51-1.58-1.35-2.16-1.18-3.05,.93-4.76,2.91-3.94,6.34,.05,.21,.29,.36,1.23,1.45,3.1-1.27,5.38-2.89,4.87-6.62Z"/><path class="cls-1" d="M504.34,468.63c-.88-.17-2.08,1.36-3.14,2.14,.98,1.13,1.77,2.73,3,3.23,.77,.31,2.21-1.04,4.28-2.14-1.83-1.51-2.87-2.98-4.14-3.22Z"/><path class="cls-1" d="M277.69,511.98c1.35-.2,2.54-1.43,4.4-2.62-1.54-1.22-2.59-2.59-3.16-2.41-1.35,.42-2.48,1.58-3.69,2.44,.83,.92,1.78,2.69,2.45,2.59Z"/><path class="cls-1" d="M398.7,698.43c2.11,1.51,4.94,4.72,6.19,4.19,2.75-1.17,5.7-3.86,6.68-6.61,.86-2.41-.86-5.73-1.44-8.65-1.9,1.1-3.8,2.2-5.69,3.3-1.91,2.59-3.82,5.18-5.73,7.77Z"/><path class="cls-1" d="M353.8,568.94c.17-.29-.76-1.24-1.52-2.39-1.07,1.27-1.93,1.98-2.29,2.9-.12,.31,1.33,1.7,1.5,1.6,.9-.5,1.78-1.23,2.3-2.1Z"/><path class="cls-1" d="M481.48,480.62c.1-.41-.59-1.02-1.09-1.77-.68,.74-1.43,1.19-1.48,1.72-.04,.42,.79,1.32,1.18,1.29,.52-.04,1.27-.71,1.39-1.23Z"/><path class="cls-1" d="M443.57,403.13c-.38,.19-.95,.3-1.1,.6-.13,.26,.22,.75,.36,1.14,.51-.27,1.01-.55,1.52-.82-.26-.31-.52-.61-.78-.92Z"/><path class="cls-1" d="M501.96,664.88c1.75-.48,3.58-.8,5.17-1.6,.28-.14-.49-2.33-.96-4.42-1.83,.82-3.68,1.32-4.99,2.44-.44,.38,.49,2.35,.79,3.59Z"/></g></g></g></svg>