<?xml version="1.0" encoding="UTF-8"?><svg id="Layer_2" xmlns="http://www.w3.org/2000/svg" xmlns:xlink="http://www.w3.org/1999/xlink" viewBox="0 0 720 265"><defs><style>.cls-1{clip-path:url(#clippath);}.cls-2{fill:none;}</style><clipPath id="clippath"><rect class="cls-2" width="720" height="265"/></clipPath></defs><g id="Footer"><g class="cls-1"><g><path d="M350.27,197.98c5.32-4.13,3.71-8.58,1.75-12.86-2.02-4.42-2.1-8.28,1.72-11.85,2.19-2.05,3.87-4.6,1.93-7.69-.54-.86-1.98-1.72-2.93-1.64-3.6,.28-4.6,3.35-5.21,6.12-.64,2.89-1.13,5-4.3,6.7-5.44,2.93-5.94,9.29-2.06,14.25,1.11,1.41,2.03,2.97,2.85,4.19-1.92,2.28-3.93,3.71-4.52,5.58-1.21,3.84-3.76,6.22-7.06,7.84-4.79,2.36-5.57,6.29-4.95,10.95,.39,2.86,1.28,5.74,1.17,8.57-.51,12.94,5.97,22.52,14.56,31.1,2.41,2.41,5.45,3.41,8.55,1.25,3.22-2.23,2.11-5.22,.49-7.7-2.51-3.84-1.35-6.89,1.48-9.71,1.53-1.52,3.43-2.68,4.91-4.24,3.62-3.8,9.31-5.55,11.17-11.05,1.43-4.25,3.59-7.8,8.52-9.29-2.12-4.93-3.68-8.94-5.55-12.79-1.69-3.5-4.04-6.13-7.87-8.01-5-2.46-9.44-2.68-14.65,.28Z"/><path d="M402.78,33.34c-5.15,1.63-7.59,4.71-7.33,9.39,.18,3.34,.49,6.68,.78,10.52,9.41,.6,12.44-.07,15.92-3.41,3.08-2.95,3.56-8.01,1.15-12.02-2.28-3.79-6.71-5.68-10.51-4.47Z"/><path d="M502.14,14.21c3.46,1.27,8.59-1.71,10.31-6,1.85-4.61-.65-9.1-6.27-11.24-4.7-1.79-10.45-.59-11.71,2.44-1.97,4.74,2.19,12.79,7.67,14.8Z"/><path d="M584.23,82.69c2.34-1.64,4.64-3.52,6.43-5.72,2.74-3.37,2.06-7.29,.45-10.94-1.26-2.86-3.79-5.04-6.83-4.05-2.69,.88-4.88,3.3-7.5,5.18,.38,4.94,.33,9.28,1.15,13.45,.6,3.02,3.69,3.91,6.29,2.09Z"/><path d="M449.07,129.2c3.25,1.33,6.24,.94,8.62-1.71,1.93-2.15,1.25-5.92-1.41-9.29-2.7-3.42-5.58-4.48-8.8-3.01-2.82,1.29-4.98,3.37-4.62,6.69,.39,3.69,2.73,6.09,6.22,7.32Z"/><path d="M359.28,144.93c3.07-.89,4.43-1.39,5.83-1.68,5.71-1.21,7.45-5.13,3.9-9.63-1.43-1.81-3.59-3.39-5.74-4.17-1.79-.65-4.77-.73-5.92,.34-1.22,1.13-1.48,4.02-1.14,5.96,.54,3.03,1.94,5.91,3.08,9.18Z"/><path d="M196.5,13.65c3.88,1.98,8.63,.08,10.81-4.33,1.7-3.44,.59-6.96-2.69-8.53-3.34-1.6-9.79,.44-11.52,3.64-1.56,2.89,.16,7.56,3.4,9.21Z"/><path d="M247.63,41.21c3.15,1.31,7.39-.25,8.69-3.19,1.51-3.4-.59-7.89-4.44-9.52-3.92-1.65-8.21-.44-9.43,2.66-1.36,3.47,1.17,8.38,5.18,10.04Z"/><path d="M308.46,53.69c5.59,1.2,8.2-2.51,11.88-7.45-3.68-1.97-6.41-3.97-9.47-4.92-3.73-1.16-7.35,1.64-7.91,5.36-.56,3.72,1.37,6.12,5.5,7.01Z"/><path d="M510.04,198.15c-2.44,3.52-1.91,6.74,1.17,8.66,3.23,2.01,7.3,.95,9.31-2.41,2.7-4.52,.97-8.53-5.65-12.07-1.56,1.87-3.37,3.73-4.84,5.83Z"/><path d="M518.07,178.62c4.16,1.76,8.06,.4,9.61-3.34,1.62-3.91,.92-6.81-1.95-8.06-3.43-1.5-9.18,.77-10.44,4.12-1.13,3,.07,6.14,2.79,7.29Z"/><path d="M556.15,95.85c3.51,1.59,7.14,.41,8.55-2.78,1.35-3.07-.23-6.87-3.51-8.44-3.43-1.65-7.93,.04-9.84,3.68-1.37,2.63,.52,5.61,4.8,7.54Z"/><path d="M288.38,260.24c-3.66-1.31-5.61-.16-6.09,2.36-.66,3.42,1.54,7.42,5.54,9.26,1.33,.61,3.82,.9,4.53,.15,1.09-1.16,2.03-3.84,1.41-4.97-1.56-2.84-4.04-5.17-5.38-6.78Z"/><path d="M367.47,95.61c4.27-3.01,2.61-6.8,1.58-10.29-.66-2.22-2.63-4.06-4.84-2.69-1.39,.86-2.62,3.57-2.35,5.18,.54,3.17,2.03,6.26,5.61,7.8Z"/><path d="M339.65,129.25c1.99,1.28,3.74-.32,3.87-2.62,.13-2.32-1.49-3.63-3.65-3.41-2.54,.26-5.02,1.08-8.13,1.79,1.23,5.55,5.52,2.69,7.91,4.23Z"/><path d="M252.83,184.73c-.43,.78,.64,2.41,1.04,3.65,1.38-.57,3.15-.82,4.01-1.84,.54-.63-.3-2.43-.69-4.73-2.01,1.26-3.73,1.79-4.36,2.92Z"/><path d="M448.45,216.93c.93,.05,1.91-.89,2.87-1.39-.49-.92-.97-2.61-1.48-2.62-1.17-.02-2.35,.78-4.36,1.58,1.43,1.24,2.17,2.4,2.97,2.44Z"/><path d="M346.21,158.25c.16,.2,2.23-.68,2.2-.84-.23-1.25-.61-2.53-1.28-3.58-.18-.27-1.57,.24-3.05,.5,.86,1.69,1.34,2.93,2.14,3.92Z"/><path d="M540.63,132.78c-.23,.97,.19,2.09,.34,3.15,1-.21,2.53-.13,2.87-.72,.41-.73-.18-2.02-.43-3.63-1.34,.54-2.67,.72-2.78,1.2Z"/><path d="M458.28,54.06c.23-.72-.11-1.99-.67-2.48-.45-.39-1.61,.04-2.46,.11,.09,1.04,.18,2.08,.33,3.83,1.41-.69,2.62-.91,2.8-1.46Z"/><path d="M353.53,98.77c.11,.14,1.61-.33,1.65-.63,.1-.78-.25-1.61-.5-2.8-1.06,.55-2.12,.9-2.1,1.13,.09,.81,.46,1.64,.95,2.3Z"/><path d="M261.68,101.06c-1.12-.49-2.24-.98-3.35-1.47-.2,.46-.4,.91-.59,1.37,1.15,.44,2.29,.87,3.44,1.31,.17-.4,.34-.8,.51-1.2Z"/><path d="M415.79,141.65c.43-.46,1.03-.86,1.24-1.41,.22-.57,.06-1.29,.08-3.23-1.55,2.1-2.18,2.59-2.22,3.12-.03,.48,.57,1.01,.9,1.52Z"/><path d="M257.04,210.19c-.36-.22-1.15,.25-2.03,.48,.49,.88,.68,1.73,1.16,1.94,.39,.17,1.5-.34,1.6-.72,.12-.51-.28-1.42-.74-1.71Z"/><path d="M171.57,221.88c.06,.43-.01,.99,.23,1.23,.21,.2,.78,.02,1.2,.01-.1-.57-.2-1.13-.3-1.7-.37,.15-.75,.3-1.12,.45Z"/><path d="M438.42,248.55c.09-1.81,.37-3.65,.1-5.41-.05-.31-2.37-.27-4.5-.48,.21,2,.1,3.91,.75,5.51,.22,.54,2.38,.28,3.66,.38Z"/><path d="M340.32,148.47c-.22-.56-.4-1.13-.7-1.64-.04-.06-.71,.26-1.32,.48,.31,.55,.54,1.12,.93,1.54,.11,.11,.71-.25,1.09-.39Z"/><path d="M292.23,187.12c-.28-.51-.74-.92-1.13-1.36-.28,.3-.56,.6-1,1.07,.46,.4,.88,.83,1.38,1.12,.08,.04,.82-.71,.76-.82Z"/></g></g></g></svg>