<?xml version="1.0" encoding="UTF-8"?><svg id="Layer_2" xmlns="http://www.w3.org/2000/svg" xmlns:xlink="http://www.w3.org/1999/xlink" viewBox="0 0 438 1035"><defs><style>.cls-1{fill:#ff8c1a;}.cls-2{clip-path:url(#clippath);}.cls-3{fill:none;}</style><clipPath id="clippath"><rect class="cls-3" width="438" height="1035"/></clipPath></defs><g id="MUSIC"><g class="cls-2"><g><path class="cls-1" d="M392.15,449.44c-3.15-1.11-6.31-.76-9.24,1.76-2.72,2.33-6.14,3.83-9.16,5.82-1.32,.87-2.88,1.84-3.55,3.15-5.95,11.56,3.11,27.77,15.73,27.94,12.43,.17,20.57-7.19,20.62-19.98,1.16-10.49-6.31-15.84-14.4-18.69Z"/><path class="cls-1" d="M321.11,385.76c-5.24-1.78-10.81-3.47-16.06,.79-1.46,1.18-3.63,1.51-5.52,2.11-5.51,1.74-7.5,6.15-8.38,11.24-.93,5.42,1.1,9.75,5.58,12.86,4.51,3.13,9.7,4.08,15.52,4.36,5.69,.62,10.67-1.81,14.31-6.51,7.81-10.11,3.06-21.96-5.45-24.84Z"/><path class="cls-1" d="M388.03,400.87c8.68-1.85,15.45-9.64,14.85-17.46-.44-5.74-3.47-10.1-8.71-12.41-2.95-1.3-6.32-1.67-8.71-2.26-5.39,3.58-10.03,6.67-15.99,10.63-1.24,3.19-2.02,6.97-.56,11.01,2.92,8.06,10.59,12.31,19.11,10.5Z"/><path class="cls-1" d="M448.08,358.82c8.15,.37,13.72-5.57,13.48-13.7-.13-4.29-2.05-7.72-4.57-10.77-3.66-4.42-9.6-4.47-13.97-.54-2.94,2.64-5.93,5.24-8.83,7.81-.45,6.68,.35,10.57,2.94,13.11,3.02,2.96,6.94,3.91,10.95,4.09Z"/><path class="cls-1" d="M318.34,679.35c-2.76,.73-5.58,1.48-8.22,2.17-2.79,6.37-2.48,9.05,1.14,11.33,3.61,2.27,7.73,1.48,10.35-2.25,.9-1.28,1.79-3,1.69-4.45-.22-3.05-1.62-5.68-4.97-6.81Z"/><path class="cls-1" d="M400.75,433.87c-1.74,.79-3.33,1.94-5.49,3.23,.47,2.26,.49,4.63,1.49,6.47,.85,1.56,2.67,2.87,4.35,3.66,2.77,1.29,6.19,.2,7.96-2.03,2.21-2.79,2.32-6.29,.28-9.07-2.13-2.91-5.19-3.8-8.59-2.25Z"/><path class="cls-1" d="M439.83,299.41c3.69,.65,6.55-.85,8.73-4.76,2.2-3.95-.49-8.88-5.85-9.45-.56,.22-1.89,.48-2.87,1.2-1.3,.95-2.29,2.31-3.5,3.41-3.66,3.32-.9,8.84,3.48,9.61Z"/><path class="cls-1" d="M371.49,304.16c-.2-2.91-3.98-5.73-7.16-5.35-3.65,.44-7.25,5.12-6.56,8.53,.51,2.53,3.9,4.53,7.07,4.18,3.75-.41,6.89-3.88,6.64-7.35Z"/><path class="cls-1" d="M411.39,393.13c-4.32,.16-8.55,3.83-8.05,6.99,.61,3.89,3.78,6.46,7.59,6.16,3.48-.28,6.72-3.38,6.5-6.22-.23-2.94-3.78-7.01-6.04-6.93Z"/><path class="cls-1" d="M443.89,445.08c2.51-.89,3.85-2.98,3.93-6.13,.09-3.45-.97-5.94-3.01-6.7-2.57-.97-4.31,.61-6.03,2.16-.72,.65-1.59,1.17-2.25,1.88-1.6,1.7-1.7,4.24-.37,6.31,1.64,2.53,4.76,3.54,7.72,2.48Z"/><path class="cls-1" d="M352.87,379.24c-1.89,.99-3.63,1.87-5.33,2.81-.57,.31-1.33,.71-1.5,1.23-.39,1.17-.99,2.65-.6,3.65,1.75,4.44,7.72,6.27,11.61,3.79,2.94-1.88,3.62-6.17,1.06-8.54-1.39-1.28-3.37-1.92-5.23-2.94Z"/><path class="cls-1" d="M441.07,422.38c.05-2.75-2.17-5.39-4.62-5.5-3.74-.18-7.83,3.15-7.58,6.17,.22,2.76,2.96,5.32,6,5.62,3.2,.31,6.14-2.66,6.21-6.29Z"/><path class="cls-1" d="M338.76,421.08c-.98,.47-2.96,.99-4.33,2.2-1.03,.91-1.83,2.73-1.76,4.1,.1,2.08,1.77,3.41,3.88,3.83,2.85,.56,6-1.42,6.85-4.22,.77-2.51-1.26-5.69-4.65-5.91Z"/><path class="cls-1" d="M348.41,249.6c2.49-.31,4.1-2.29,3.88-4.76-.17-2.01-2.17-3.8-3.95-3.54-2.94,.42-5.52,2.89-5.15,4.92,.39,2.17,2.74,3.69,5.23,3.38Z"/><path class="cls-1" d="M369.12,342.53c-.91,1.53-.21,3.1,1.51,3.83,2.3,.96,3.57-.22,4.43-2.8-.86-.64-1.73-1.73-2.79-1.95-.99-.2-2.72,.2-3.15,.92Z"/><path class="cls-1" d="M299.17,448.35c-1.68-.7-4.25,1.35-3.78,3.07,.26,.97,1.66,2.35,2.45,2.29,1.28-.09,2.48-1.22,4.42-2.31-1.43-1.47-2.1-2.64-3.08-3.05Z"/><path class="cls-1" d="M377.91,296.66c-1.44-1.09-2.35-2.14-2.71-1.98-1.31,.59-2.52,1.5-3.55,2.52-.17,.17,1.03,2.12,1.1,2.09,1.54-.66,3.02-1.49,5.17-2.64Z"/><path class="cls-1" d="M319.96,564.22c0-.8,.07-1.13-.01-1.42-.43-1.62-1.25-3.02-3.12-2.82-.62,.07-1.64,1.17-1.61,1.76,.08,1.82,1.5,2.53,3.17,2.73,.29,.03,.59-.09,1.57-.25Z"/><path class="cls-1" d="M412.11,652.9c.11,.78,.86,1.78,1.57,2.05,.5,.18,2.06-.89,2-1.09-.29-1.06-.93-2.01-1.8-3.66-.97,1.39-1.86,2.12-1.78,2.7Z"/><path class="cls-1" d="M323.22,451.29c.2,.43,.54,.79,.83,1.17,.26-.41,.51-.82,.77-1.23-.4-.21-.78-.45-1.21-.59-.06-.02-.46,.52-.4,.65Z"/></g></g></g></svg>