<?xml version="1.0" encoding="UTF-8"?><svg id="Layer_2" xmlns="http://www.w3.org/2000/svg" xmlns:xlink="http://www.w3.org/1999/xlink" viewBox="0 0 648 1077"><defs><style>.cls-1{fill:#ff8c1a;}.cls-2{clip-path:url(#clippath);}.cls-3{fill:none;}</style><clipPath id="clippath"><rect class="cls-3" width="648" height="1077" transform="translate(648 1077) rotate(180)"/></clipPath></defs><g id="BIO"><g class="cls-2"><g><path class="cls-1" d="M95.35,403.85c-2.17-3.53-5.14-6.15-9.33-6.92-4.24-.78-8.54-1.26-12.78-2.05-2.88-.54-6.05-.85-7.16-4.5,1.91-5.25,3.58-10.54,7.67-14.85,2.73-2.87,2-6.18-1.4-8.53-8.11-5.61-16.47-10.42-26.73-4.99-1.13,.6-2.61,.51-3.86,.95-6.5,2.26-9.2,6.61-8.66,13.76,.28,3.65,.34,7.32,.82,10.93,.46,3.48,1.34,6.9,2.07,10.49-6.41-2.23-12.64-3.72-18.22-6.5-6.59-3.28-13.13-4.27-20.24-3.04-3.6,.62-7.24,1-10.86,1.49,4.01-6.16,1.55-11.65-2.34-16.45-7.64-9.42-17.78-12.07-29.32-9.92q-2.03,4.47-8.2,7.88c-1.33,5.5-.45,11.03,.91,16.54,1.01,4.08,3.44,7.14,6.91,9.42,7.49,4.91,18.07,4.55,25.2-.99,2.34-1.82,4.41-3.98,6.6-5.99-4.4,9.09-2.19,18.87-2.66,27.69-2.47,2.69-4.43,4.92-6.48,7.06-3.93,4.12-1.49,7.59,2.54,9.25,2.61,1.08,5.18,1.19,7.62-.44,1.9-1.27,3.76-2.59,6.13-4.23,5.55,6.35,12.96,3.22,19.04,4.62,3.28-2.29,3.52-7.62,8.91-6.09-.31,2.62-.61,5.19-1.02,8.7-6.8-.71-9.9,4.02-12.87,8.95-.51,.84-.99,1.93-1.77,2.34-7.68,3.92-11.07,11.97-16.98,17.61-3.73,3.56-5.58,8.82-9.48,12.4,.51,4.95-3.32,7.45-5.73,10.92-2.67,3.83-5.31,7.54-8.62,10.87-3.36,3.38-4.94,7.77-6.16,12.35-1.27,4.78-.66,9.04,1.67,13.43,3.27,6.18,7.74,10.62,14.77,11.79,.42,1.76,.52,3.12,1.06,4.29,1.76,3.87,5.01,4.55,7.81,1.61,1.34-1.4,2.38-3.09,3.74-4.9,9.7,.39,19.32,.66,28.91,1.2,5.99,.34,11.05-1.47,15.58-5.33,3.27-2.79,6.79-5.27,10.11-8.01,4.62-3.81,9.32-7.54,12.24-12.97,2.18-4.05,4.46-8.04,6.7-12.07-1.42-5.52-1.62-11.07-.54-16.74,.74-3.9,.92-7.91,1.36-11.87,.43-3.96,.96-7.92,1.28-11.89,.31-3.84,2.48-6.07,5.92-7.19,4.09-1.33,8.23-2.5,11.97-3.63,2.15-4.37,3.95-8.58,6.24-12.52,2.84-4.89,3.5-9.96,2.37-15.38-.52-2.53-1.06-5.06-1.67-8,1.82-.87,3.34-1.45,4.72-2.28,3.59-2.15,4.33-4.85,2.23-8.27Zm-63.72,10.99c-.1,.05-.92-.96-.87-1.03,.54-.64,1.2-1.19,1.83-1.76,.31,.4,.62,.79,1.1,1.42-.69,.48-1.34,1.01-2.07,1.37Zm30.78-13.74c-.51-.03-.98-.56-1.47-.88,.5-.27,.99-.53,1.48-.8,.49,.31,.98,.62,1.47,.94-.5,.27-1.01,.76-1.49,.73Z"/><path class="cls-1" d="M339.46,358.13c-3.37-5.72-6.94-11.33-10.19-17.12-2.67-4.76-6.11-8.72-10.66-11.66-12.68-8.19-25.89-15.03-41.32-16.39-2.93-.26-6.34-.53-8.57-2.13-3.65-2.61-6.58-2.09-10.11-.29-12.14,6.18-24.31,12.32-36.57,18.26-9.09,4.41-15.84,10.86-19.39,20.44-.69,1.87-1.26,3.8-2.08,5.61-3.51,7.74-2.42,15.68-.76,23.52,.52,2.47,2.12,4.91,3.81,6.88,3.89,4.55,7.99,8.94,12.25,13.14,6.04,5.95,13.12,9.88,21.6,11.71,8.6,1.85,17.19,1.57,25.05,1.6q21.3-.71,39.78-6.78c.32-.1,.64-.18,.95-.3,11.48-4.48,22.86-9.19,32.86-16.6,7.9-5.85,10.36-13.59,7.06-22.82-.88-2.47-2.36-4.75-3.7-7.04Z"/><path class="cls-1" d="M20.31,918.99c-.74-.64-1.69-1.04-2.53-1.56-5.77-3.59-6.49-5.32-3.94-11.27,1.83-4.26,4.09-8.33,6.16-12.49v-17.69c-.22-.15-.98-.84-1.87-1.24-3.68-1.66-5.84-4.19-5.6-8.49,.21-3.61-1.65-6.11-4.38-8.46-4.01-3.44-7.38-7.6-13.14-8.35-2.79-.37-4.36-2.72-6.21-4.68-1.23-1.3-3.62-2.82-5.01-2.44-5.38,1.44-9.67-1.41-14.06-2.96-1.23,.5-2.37,.64-3.03,1.28-3.69,3.57-7.65,4.46-12.73,2.92-3-.91-6.5-.17-9.99-.17-1.46,7.96-4.63,13.68-12.82,15.21-2.97,.56-4.07,3.21-3.74,6.22,.68,6.28-2.27,10.07-8.06,12.02-.53,.18-.88,.9-1.76,1.86,1.45,1.6,3,3.19,4.4,4.9,1.71,2.1,1.59,4.52-.44,6.18-1.9,1.55-4.01,2.85-6.69,4.72,3.62,1.51,6.29,2.63,9.32,3.9-.71,3.14-1.33,5.88-1.89,8.34,2.16,1.8,3.84,3.2,5.57,4.64-1.69,1.57-3.25,4.23-3.61,6.24,2.68-.63,5.1-1.2,7.79-1.83,.85,2.27,1.63,4.38,2.55,6.85,7.52,1.88,13.97,5.7,19.15,13.18,6.15-5.18,11-.04,16.58,2.4,4.37-5.21,9.92-4.67,14.4-3.51,3.68-2.36,6.24-5.13,9.18-5.62,4.99-.85,8.63-2.42,11.14-7.1,.9-1.68,3.68-2.57,5.79-3.31,2.18-.77,3.65,.95,5.1,2.37,.69,.68,1.53,1.41,2.43,1.64,.83,.22,2.16,.13,2.68-.4,1.17-1.2,.26-2.41-.75-3.28Z"/><path class="cls-1" d="M6.51,308.38c3.72,2.64,5.45,6.61,7.03,10.67,.84,2.17,1.72,4.33,2.44,6.54,5.1,15.7,22.76,25.46,37.44,24.62,2.32-.13,4.65-.2,6.97-.41,4.08-.38,7.91-.06,11.34,2.64,1.54,1.21,3.44,2.05,5.27,2.8,7.61,3.12,16.22,.92,21.69-5.42,6.36-7.37,6.81-11.69,1.46-20.7-1.44-2.43-1.92-4.74-2.13-7.45-.49-6.29-.97-12.63-2.22-18.8-2.93-14.51-10.76-24.8-25.87-28.44-3.46-.83-6.88-2.1-9.55-4.49,1.16-3.18,2.16-5.94,3.18-8.71,1.08-2.92,1.45-5.8-.29-8.63-2.09-3.42-5.06-5.08-9.36-4.92-1.06,1.21-2.13,2.44-3.22,3.65q-7.34,8.17-3.93,18.09c-6.65,1.88-13.34,3.6-19.92,5.69-7.74,2.46-14.42,6.91-20.28,12.39-6.25,5.84-7.43,15.64-.05,20.87Z"/><path class="cls-1" d="M86.57,679.35c1.46-3.61,1.78-7.68,2.62-11.55-.21-.05-.42-.09-.63-.14,.21-1.95,1.21-4.29,.49-5.78-3.03-6.23-4.93-13.23-10.39-18.01-20.12-17.57-44.51-7.74-52.72,10.27-3.68,8.06-3.35,16.13-2.13,24.42,.14,.94,.56,1.94,1.13,2.7,4.21,5.61,8.69,10.9,15.01,14.36,17.49,9.58,39.14,2.17,46.62-16.28Z"/><path class="cls-1" d="M-27.58,324.78c-.8,3.28,.48,5.9,3.09,7.8,1.22,.89,2.74,1.37,4.86,2.4-3.14,3.8-5.82,7.05-8.63,10.45,.28,5.18,.11,10.49,3.12,15.01,3.46,1.08,6.58,2.13,9.75,3.02,6.16,1.72,12.42,2.23,18.71,.87,1.57-.34,3.29-.88,4.49-1.87,8.59-7.08,11.4-20.45,6.67-30.89-1.34-2.95-2.77-3.73-6.27-3.34-7.53,.85-15.06,1.72-23.29,2.66,.97-4.49-.98-8.03-3.04-11.53-1.26,.17-2.53,.29-3.78,.53-2.79,.56-4.96,1.96-5.68,4.88Z"/><path class="cls-1" d="M182.22,431.04c-5.28-3.64-11.02-4.7-16.79-1.36-6.58,3.81-11.55,8.99-11.42,17.27,.17,11.06,11.07,21.43,22.18,21.27,13.54,.41,21.06-13.26,17.37-23.91-2.12-6.12-6.43-9.87-11.35-13.27Z"/><path class="cls-1" d="M101.02,855.75c-6.33-2.99-15.25-1.59-20.37,3.36-2.6,2.51-4.87,5.36-7.41,8.2,1.04,4.75,1.69,8.32,2.64,11.82,.42,1.55,1.15,3.2,2.22,4.36,7.53,8.19,20.7,12.37,30.31-1.15,1.33-1.87,2.67-3.73,4.07-5.69-.88-3.69-1.67-7.24-2.59-10.75-1.26-4.84-4.47-8.07-8.88-10.15Z"/><path class="cls-1" d="M109.32,460.29c-6.44-4.83-13.79-6.13-20.56,.89-2.73,2.83-5.58,5.53-8.77,8.68,0,2.11-.02,4.73,0,7.35,.05,5.56,2.95,9.2,7.62,11.92,3.94,2.29,8.07,2.86,12.46,2.52,7.17-.55,14.06-5.59,15.8-11.83,2.15-7.74-.32-14.86-6.55-19.53Z"/><path class="cls-1" d="M182.15,477.96c-4.94-.52-9.6,3.76-9.9,9.09-.26,4.57,3.63,8.84,8.54,9.39,5.51,.62,9.82-2.93,10.21-8.43,.38-5.32-3.27-9.47-8.85-10.05Z"/><path class="cls-1" d="M141.93,387.76c-.21-1.44-1.11-3.39-2.29-3.96-2-.97-4.45-1.05-5.49-1.25-2.27,.11-3.27,.13-4.26,.21-.66,.05-1.33,.12-1.97,.26-2.45,.53-4.13,2.56-4.11,4.91,.02,2.35,1.72,4.8,3.91,5.17,4.38,.75,8.64,.15,12.5-2.06,.94-.54,1.86-2.26,1.71-3.28Z"/><path class="cls-1" d="M121.67,405.32c-3.47-.55-7.53,2.71-7.46,6.01,.06,2.84,2.78,5.15,6.05,5.12,3.17-.03,5.61-2.33,5.77-5.44,.13-2.68-1.87-5.3-4.36-5.69Z"/><path class="cls-1" d="M162.48,425.25c2.43,.13,5-3.13,4.95-6.29-.04-2.58-2.65-5.02-5.19-4.86-3.19,.21-6.27,3.86-5.71,6.77,.4,2.11,3.29,4.24,5.95,4.38Z"/><path class="cls-1" d="M418.71,629.15c-2.7,.47-5.35,4-4.93,6.6,.39,2.44,3.13,4.36,5.99,4.21,2.75-.15,4.99-2.6,4.88-5.31-.13-3.03-3.28-5.95-5.94-5.49Z"/><path class="cls-1" d="M214.53,550.78c-2.44,.17-5.54,3.21-5.99,5.86-.38,2.27,2.34,4.78,5.23,4.82,3.08,.04,5.67-2.47,5.76-5.59,.08-2.68-2.47-5.27-5-5.09Z"/><path class="cls-1" d="M141.53,574.65c-1.88-1.43-3.7-1.2-5.36,.36-1.18,1.12-2.26,2.34-3.49,3.63,1.31,4.1,3.41,5.39,6.41,5.03,2.17-.26,3.61-1.7,4.21-3.74,.62-2.08,0-3.93-1.77-5.28Z"/><path class="cls-1" d="M296.4,587.37c-1.99,.02-3.74,1.68-3.86,3.66-.19,3.39,2.5,6.09,6.11,6.15,2.33,.04,4.6-2.08,4.49-4.2-.16-3.22-3.08-5.65-6.75-5.61Z"/><path class="cls-1" d="M326.01,296.39c2.76-.29,4.73-2.61,4.58-5.39-.16-2.94-2.34-5.38-4.74-5.3-2.63,.08-5.81,3.85-5.84,6.9-.02,2.13,3.08,4.09,6,3.79Z"/><path class="cls-1" d="M27.54,697.67c-.98-.58-2.49-.98-3.48-.62-1.07,.39-1.96,1.63-2.62,2.69-2.2,3.56-1.88,7.26-.66,10.94,5.91,.13,6.07-.25,2.88-6.19,1.72-1.63,3.23-2.8,4.35-4.27,.38-.5,.05-2.25-.47-2.55Z"/><path class="cls-1" d="M.03,447.44c2.52-.26,4.52-2.85,4.29-5.55-.21-2.4-2.2-4.18-4.59-4.11-2.76,.09-4.59,2.46-4.17,5.4,.38,2.62,2.33,4.48,4.47,4.26Z"/><path class="cls-1" d="M66.99,479.23c.02,1.9,1.83,3.78,3.73,3.86,2.57,.1,4.94-2.46,4.67-5.99-1.07-.65-2.52-2.17-4.1-2.32-2.27-.22-4.33,2.35-4.31,4.46Z"/><path class="cls-1" d="M213.7,466.19c-.93-.69-2.19-2.23-3.74-2.6-2.24-.54-4.43,1.75-4.42,3.96,.01,1.89,1.74,3.53,3.77,3.59,2.47,.07,4.49-1.79,4.38-4.94Z"/><path class="cls-1" d="M101.11,299.33c2.11-.15,3.54-1.76,3.45-4.62-.72-.58-1.74-2.03-3-2.28-2.17-.43-4.38,2.17-3.96,4.37,.34,1.82,1.66,2.67,3.52,2.53Z"/><path class="cls-1" d="M59.52,512.52c-.47,1.74,.71,3.3,2.51,3.25,1.23-.04,2.42-1.21,4.64-2.43-2.12-1.45-3.21-2.69-4.47-2.87-.82-.12-2.43,1.14-2.68,2.06Z"/><path class="cls-1" d="M2.77,738.2c1.37-1.77,2.62-2.83,3.1-4.16,.49-1.37-1.47-3.08-3.07-3.06-2.19,.03-4.29,1.92-3.6,3.6,.51,1.25,2.02,2.1,3.58,3.62Z"/><path class="cls-1" d="M342.32,328.46c-1.46,1.75-2.89,2.93-3.56,4.46-.53,1.21,1.77,2.6,3.5,2.28,2.2-.41,3.89-2.34,3.14-3.96-.45-.96-1.67-1.56-3.08-2.78Z"/><path class="cls-1" d="M-5.21,608.87c-.64,1.85,1.39,4.74,2.68,4.13,1.24-.58,2.07-2.03,3.56-3.61-1.57-1.28-2.55-2.59-3.76-2.86-.66-.15-2.14,1.33-2.49,2.33Z"/><path class="cls-1" d="M5.73,681.47c-.4-.96-1.89-2.29-2.55-2.12-1.22,.31-2.19,1.61-3.9,3.02,1.8,1.1,2.74,2.04,3.83,2.27,1.43,.3,3.21-1.79,2.63-3.16Z"/><path class="cls-1" d="M137.09,344.51c1.15-.93,2.05-2.16,3.36-3.65-1.49-.73-2.4-1.58-3.04-1.41-1.63,.45-3.05,1.56-2.41,3.53,.23,.7,1.9,1.68,2.09,1.52Z"/><path class="cls-1" d="M183.69,602.44c-.31,.52,.23,1.55,.5,2.88,1.16-.85,2.18-1.24,2.48-1.93,.23-.53-.44-1.45-.71-2.19-.78,.39-1.88,.6-2.26,1.23Z"/><path class="cls-1" d="M96.83,446.47c.59,.25,1.34,.86,1.73,.68,.69-.31,1.16-1.11,1.73-1.7-.53-.32-1.07-.65-1.87-1.14-.52,.7-1.05,1.43-1.58,2.16Z"/><path class="cls-1" d="M102.97,594.6c-.3,.71-.67,1.38-.82,2.1-.02,.11,1.19,.75,1.39,.59,.56-.45,.89-1.19,1.32-1.82-.52-.24-1.04-.48-1.89-.87Z"/><polygon class="cls-1" points="218.49 314.2 217.74 314.49 218.45 314.85 218.49 314.2"/><path class="cls-1" d="M179.13,374.47c-.43-.03-.86-.05-1.29-.08,.21,.15,.42,.3,.62,.46,.22-.13,.45-.25,.67-.38Z"/></g></g></g></svg>