<?xml version="1.0" encoding="UTF-8"?><svg id="Layer_2" xmlns="http://www.w3.org/2000/svg" viewBox="0 0 100 100"><defs><style>.cls-1{fill:#fff;}.cls-2{fill:#ffa300;}</style></defs><g id="EPK"><circle class="cls-2" cx="50" cy="50" r="50"/><path class="cls-1" d="M43,60.1v-20.84l18.32,10.42-18.32,10.42Zm40.74-27.4c-.81-3.03-3.18-5.42-6.2-6.24-5.46-1.47-27.38-1.47-27.38-1.47,0,0-21.91,0-27.38,1.47-3.01,.81-5.39,3.2-6.2,6.24-1.46,5.5-1.46,16.98-1.46,16.98,0,0,0,11.48,1.46,16.98,.81,3.03,3.18,5.42,6.2,6.24,5.46,1.47,27.38,1.47,27.38,1.47,0,0,21.91,0,27.38-1.47,3.01-.81,5.39-3.2,6.2-6.24,1.46-5.5,1.46-16.98,1.46-16.98,0,0,0-11.48-1.46-16.98"/></g></svg>